<?xml version="1.0" standalone="no"?>
<!DOCTYPE svg PUBLIC "-//W3C//DTD SVG 20010904//EN"
 "http://www.w3.org/TR/2001/REC-SVG-20010904/DTD/svg10.dtd">
<svg version="1.0" xmlns="http://www.w3.org/2000/svg"
 width="1024.000000pt" height="784.000000pt" viewBox="0 0 1024.000000 784.000000"
 preserveAspectRatio="xMidYMid meet">

<g transform="translate(0.000000,784.000000) scale(0.100000,-0.100000)"
fill="#000000" stroke="none">
<path d="M184 7814 c-62 -29 -127 -97 -157 -162 l-22 -47 0 -3690 0 -3690 22
-46 c27 -59 76 -115 132 -151 l45 -28 4920 0 4920 0 42 20 c50 25 120 97 140
145 12 30 14 559 14 3758 l0 3723 -28 45 c-35 54 -93 106 -146 130 -40 18
-198 19 -4936 18 l-4895 0 -51 -25z m9852 -11 c67 -23 154 -110 177 -177 16
-46 17 -312 17 -3711 0 -3399 -1 -3665 -17 -3711 -23 -67 -110 -154 -177 -177
-46 -16 -389 -17 -4906 -17 -4517 0 -4860 1 -4906 17 -67 23 -154 110 -177
177 -16 46 -17 312 -17 3711 0 3399 1 3665 17 3711 22 64 110 154 173 177 41
14 495 15 4906 16 4522 1 4864 0 4910 -16z"/>
<path d="M462 7579 c-54 -10 -100 -38 -145 -89 -73 -80 -67 234 -67 -3570 0
-3848 -8 -3491 77 -3581 27 -29 63 -55 91 -66 45 -17 246 -18 4702 -18 3823 0
4662 2 4692 13 61 22 134 95 157 158 l21 55 0 3439 0 3439 -21 55 c-25 68
-100 139 -168 160 -40 13 -694 15 -4671 14 -2544 0 -4644 -4 -4668 -9z m8796
-613 c42 -22 70 -57 83 -106 11 -40 10 -51 -9 -93 -23 -52 -41 -58 -73 -26
-15 15 -19 27 -14 42 4 12 9 49 12 82 6 67 -1 79 -56 95 -47 13 -81 -18 -80
-73 l0 -42 12 35 c7 19 18 35 25 34 6 -1 26 -2 42 -2 34 -2 41 -25 13 -41 -15
-9 -16 -12 -3 -20 8 -5 18 -7 22 -5 4 3 8 -2 8 -10 0 -19 -20 -32 -29 -18 -4
6 -12 7 -20 3 -9 -6 -10 -11 -3 -15 6 -4 8 -14 5 -24 -6 -15 -5 -16 12 -2 16
13 18 13 13 0 -6 -20 -35 -25 -53 -10 -20 17 -19 31 2 23 11 -4 14 -3 9 5 -10
17 -36 15 -36 -3 0 -8 11 -25 25 -37 29 -25 31 -35 8 -60 -22 -25 -46 -23 -84
9 -36 30 -59 78 -59 121 0 44 41 112 80 133 41 22 110 25 148 5z m-6630 -82
c16 -11 22 -25 22 -53 0 -48 -14 -61 -67 -61 l-43 0 0 65 0 65 33 0 c18 0 43
-7 55 -16z m287 -16 c-6 -27 -5 -31 6 -20 18 17 56 15 63 -4 10 -25 7 -84 -4
-84 -5 0 -10 18 -10 40 0 28 -5 43 -16 47 -22 8 -37 -11 -36 -46 0 -17 -4 -33
-9 -36 -5 -4 -9 23 -9 64 0 44 4 71 11 71 7 0 8 -12 4 -32z m123 -17 c0 -27 3
-54 6 -60 12 -18 44 -12 51 9 9 28 -12 52 -38 44 -13 -4 -17 -2 -13 5 4 6 18
11 32 11 31 0 51 -38 35 -67 -12 -23 -48 -36 -57 -22 -3 6 -11 5 -20 -2 -12
-10 -14 0 -14 60 0 39 4 71 9 71 5 0 9 -22 9 -49z m510 -17 l-3 -67 -33 -2
c-38 -3 -62 16 -62 49 0 31 24 50 55 44 21 -4 25 -1 25 18 0 13 5 24 10 24 7
0 10 -25 8 -66z m-2564 5 l38 -13 -4 -48 c-5 -49 -30 -88 -71 -109 -22 -13
-71 20 -92 61 -22 42 -20 100 3 100 9 1 28 7 42 15 14 8 30 12 35 10 6 -2 27
-9 49 -16z m1774 -34 c1 -27 -1 -45 -6 -38 -4 7 -13 9 -21 4 -20 -13 -51 -1
-51 19 0 19 19 30 52 30 11 0 18 5 15 13 -2 7 -18 11 -38 9 -26 -1 -30 0 -19
8 8 6 26 9 40 8 23 -3 25 -8 28 -53z m107 45 c4 -6 -6 -7 -25 -4 -23 5 -30 3
-30 -8 0 -9 13 -18 30 -21 21 -5 30 -12 30 -27 0 -25 -51 -32 -74 -10 -5 6 7
7 29 3 30 -5 37 -3 33 8 -3 8 -13 16 -24 18 -28 5 -44 20 -37 37 6 16 59 19
68 4z m363 -33 c3 -31 0 -39 -20 -46 -45 -17 -80 21 -59 65 9 21 17 25 44 22
29 -3 32 -6 35 -41z m108 12 c1 -15 4 -34 7 -43 3 -8 2 -18 -3 -21 -6 -4 -10
-1 -10 5 0 7 -5 8 -17 1 -21 -11 -53 3 -53 23 0 15 21 26 52 26 11 0 18 5 15
13 -2 7 -18 11 -38 9 -26 -1 -30 0 -19 8 8 6 26 9 40 8 19 -2 25 -9 26 -29z
m59 -25 c-4 -57 -15 -52 -15 7 0 32 4 49 9 41 4 -7 7 -29 6 -48z m35 46 c0 -5
-7 -10 -16 -10 -8 0 -12 5 -9 10 3 6 10 10 16 10 5 0 9 -4 9 -10z m-2260 -50
c33 -33 26 -50 -20 -50 -23 0 -40 -5 -40 -11 0 -7 12 -9 35 -5 36 7 44 -1 23
-22 -31 -31 -98 0 -98 45 0 28 33 63 60 63 11 0 29 -9 40 -20z m124 -2 c9 -12
16 -39 16 -60 l0 -37 -52 2 c-42 2 -53 6 -56 20 -5 25 16 47 44 47 13 0 24 5
24 10 0 7 -14 8 -37 4 l-38 -7 19 22 c25 27 61 27 80 -1z m114 10 c21 -21 13
-31 -18 -24 -16 3 -30 2 -30 -3 0 -5 14 -11 30 -15 58 -11 46 -66 -14 -66 -31
0 -56 15 -56 33 0 5 17 7 38 3 37 -5 37 -5 9 8 -40 18 -49 37 -30 58 19 21 54
23 71 6z m126 -4 c9 -8 16 -20 16 -25 0 -13 -37 -11 -46 3 -10 15 -34 -19 -27
-38 4 -11 15 -13 39 -8 35 6 43 -3 22 -24 -17 -17 -64 -15 -82 4 -24 23 -20
70 6 88 29 20 52 20 72 0z m106 -5 c0 -10 -6 -19 -14 -19 -16 0 -26 -21 -26
-56 0 -15 -6 -24 -15 -24 -12 0 -15 13 -15 58 l0 58 35 1 c28 1 35 -3 35 -18z
m110 1 c24 -24 25 -48 4 -78 -18 -26 -65 -30 -88 -6 -24 23 -20 70 6 88 30 21
54 20 78 -4z m67 -10 c3 -16 9 -30 13 -30 4 0 10 14 14 30 4 22 11 30 26 30
15 0 22 -8 27 -30 3 -16 9 -30 13 -30 4 0 10 14 14 30 3 18 12 30 21 30 19 0
19 -15 -1 -73 -19 -57 -51 -66 -60 -17 -8 39 -20 38 -28 -1 -5 -24 -10 -30
-27 -27 -17 2 -26 16 -39 55 -9 29 -15 55 -12 58 14 14 33 2 39 -25z m7396
-117 c-7 -2 -21 -2 -30 0 -10 3 -4 5 12 5 17 0 24 -2 18 -5z m-8085 -355 c17
-17 15 -43 -4 -59 -31 -26 -70 25 -44 56 15 18 32 19 48 3z m242 -40 c0 -10
-4 -18 -10 -18 -5 0 -10 15 -10 33 0 24 3 28 10 17 5 -8 10 -23 10 -32z m-125
21 c4 -6 4 -13 0 -17 -3 -3 -10 0 -15 8 -8 12 -10 10 -10 -7 0 -17 4 -21 17
-16 11 4 14 3 9 -5 -18 -30 -55 -1 -42 33 6 17 32 20 41 4z m60 -6 c14 -14 18
-14 26 -2 10 16 12 -1 3 -25 -9 -23 -19 -20 -33 11 -13 27 -25 23 -34 -12 -4
-16 -5 -14 -6 7 0 14 5 29 12 31 6 3 13 6 14 6 1 1 9 -6 18 -16z m110 7 c3 -5
12 -7 20 -3 9 3 15 -1 15 -8 0 -11 3 -11 11 1 9 12 12 13 16 1 4 -11 7 -11 14
0 13 21 18 7 7 -21 -7 -20 -11 -22 -19 -10 -8 13 -10 13 -19 0 -8 -13 -11 -12
-16 7 -4 13 -11 20 -20 16 -8 -3 -14 1 -14 8 0 11 -2 11 -9 -1 -11 -16 -4 -33
10 -25 5 4 9 1 9 -4 0 -17 -30 -13 -36 4 -12 30 15 61 31 35z m-234 -15 c5 13
8 15 8 5 0 -8 -4 -22 -9 -30 -9 -13 -11 -13 -20 0 -5 8 -10 22 -10 30 1 11 4
9 12 -5 11 -19 11 -19 19 0z m1458 -296 c12 -50 21 -99 21 -110 0 -46 17 -12
34 69 28 130 30 132 71 132 42 0 43 -3 70 -134 20 -96 26 -96 45 -1 25 129 28
135 60 135 17 0 30 -4 30 -9 0 -9 -57 -252 -66 -284 -5 -14 -14 -17 -47 -15
l-42 3 -25 110 c-27 115 -29 115 -50 15 -30 -137 -26 -131 -73 -128 l-42 3
-37 145 c-20 80 -37 148 -37 153 -1 4 14 7 33 7 l34 0 21 -91z m661 -54 c0
-80 0 -148 0 -152 0 -5 -12 -8 -27 -8 l-28 0 -3 140 c-1 76 0 145 2 152 3 7
17 13 31 13 l25 0 0 -145z m1340 80 c0 -61 1 -65 23 -65 16 0 32 16 62 65 36
59 43 65 72 65 18 0 33 -2 33 -5 0 -3 -21 -37 -46 -75 l-47 -70 47 -75 c25
-42 46 -78 46 -80 0 -3 -15 -5 -34 -5 -31 0 -37 5 -66 56 -30 51 -63 78 -82
67 -5 -2 -8 -31 -8 -64 0 -60 0 -60 -27 -57 l-28 3 -3 153 -3 152 31 0 30 0 0
-65z m520 13 c4 -39 8 -46 20 -38 30 19 89 11 115 -15 21 -20 25 -34 25 -85 0
-55 -3 -65 -29 -91 -31 -31 -75 -38 -111 -19 -13 7 -21 7 -25 0 -3 -5 -17 -10
-31 -10 l-24 0 0 156 0 155 28 -3 c24 -3 27 -8 32 -50z m-1991 -49 c24 -23 41
-59 41 -90 0 -17 -8 -19 -80 -19 -44 0 -80 -3 -80 -7 0 -14 34 -43 50 -43 9 0
25 7 36 15 25 19 64 19 64 0 0 -21 -38 -53 -71 -60 -121 -27 -192 129 -95 207
31 26 106 24 135 -3z m356 -4 c14 -13 25 -31 25 -40 0 -20 -46 -20 -67 1 -38
38 -97 -17 -77 -73 7 -21 17 -29 40 -31 19 -2 36 3 44 12 7 9 23 16 36 16 32
0 31 -30 -2 -61 -37 -35 -113 -34 -150 2 -34 34 -42 94 -20 141 20 42 46 56
104 57 33 1 49 -5 67 -24z m244 -1 c56 -47 50 -147 -13 -185 -86 -52 -186 14
-173 115 12 88 117 128 186 70z m131 16 c0 -7 6 -7 19 0 28 15 72 12 91 -5 15
-14 18 -14 30 0 7 9 29 15 51 15 57 0 69 -24 69 -138 l0 -93 -27 3 c-28 3 -28
4 -31 86 -2 65 -6 84 -19 89 -32 12 -54 -34 -52 -106 l3 -66 -30 0 -29 0 -3
83 c-2 62 -7 84 -18 89 -30 11 -43 -16 -46 -95 l-3 -77 -30 0 -30 0 -3 113 -3
112 31 0 c16 0 30 -5 30 -10z m482 -17 c16 -17 28 -42 30 -63 l3 -35 -77 -3
c-80 -3 -90 -9 -62 -36 19 -20 44 -20 70 -1 24 18 64 19 64 2 0 -8 -12 -24
-26 -38 -20 -19 -36 -24 -76 -24 -43 0 -53 4 -79 33 -22 24 -29 42 -29 73 0
76 39 118 111 119 37 0 50 -5 71 -27z m623 21 c30 -12 45 -60 45 -144 0 -79 0
-80 -25 -80 -15 0 -25 6 -25 14 0 13 -4 13 -27 0 -34 -17 -57 -18 -86 -3 -30
16 -37 28 -37 66 0 40 37 63 100 63 34 0 41 3 38 18 -4 20 -45 29 -61 13 -12
-12 -77 -15 -77 -3 2 43 98 78 155 56z m3120 -31 c-22 -3 -45 -9 -52 -15 -17
-14 -18 -300 -1 -331 10 -20 10 -21 -5 -8 -15 11 -17 36 -17 169 0 181 5 193
74 190 l41 -1 -40 -4z m195 -145 c0 -21 0 -21 14 -2 8 10 18 16 22 12 9 -10
13 -98 4 -98 -11 0 -27 22 -33 45 -3 13 -5 9 -6 -12 -1 -40 -21 -44 -22 -5 0
15 -2 36 -4 46 -4 22 2 36 16 36 5 0 9 -10 9 -22z m80 -33 c0 -30 -4 -55 -9
-55 -9 0 -20 98 -12 106 14 14 21 -3 21 -51z m-200 -5 c0 -27 -4 -50 -10 -50
-5 0 -10 23 -10 50 0 28 5 50 10 50 6 0 10 -22 10 -50z m340 18 c0 -5 -4 -8
-10 -8 -5 0 -10 -9 -10 -20 0 -11 5 -20 11 -20 5 0 7 -4 4 -10 -13 -21 -35 -8
-44 27 -13 46 0 69 30 50 10 -6 19 -15 19 -19z m190 22 c0 -5 -11 -10 -25 -10
-14 0 -25 -4 -25 -10 0 -5 12 -10 26 -10 14 0 23 -4 19 -10 -3 -5 -15 -10 -26
-10 -11 0 -17 -4 -14 -10 3 -5 15 -10 26 -10 10 0 19 -4 19 -10 0 -5 -16 -10
-35 -10 l-35 0 0 50 0 50 35 0 c19 0 35 -4 35 -10z m-448 -34 c11 -26 5 -56
-12 -56 -5 0 -10 14 -10 31 0 17 -4 28 -10 24 -5 -3 -10 -18 -10 -31 0 -32
-24 -27 -28 5 -5 35 5 51 33 51 17 0 29 -8 37 -24z m186 12 c7 -7 12 -24 12
-39 0 -24 -3 -27 -32 -26 -29 2 -33 5 -34 32 -2 41 28 59 54 33z m130 0 c19
-19 14 -56 -8 -63 -24 -8 -50 10 -50 34 0 19 19 41 35 41 6 0 16 -5 23 -12z
m201 -10 c13 -35 3 -55 -27 -54 -23 1 -27 6 -28 31 -2 46 40 64 55 23z m69 4
c2 -8 -2 -10 -15 -5 -13 5 -12 1 6 -13 21 -18 21 -21 7 -33 -9 -7 -23 -11 -31
-7 -21 8 -19 27 3 19 11 -3 9 0 -6 12 -19 14 -21 20 -11 31 14 17 40 15 47 -4z
m66 12 c24 -9 19 -24 -6 -21 -15 1 -23 -3 -23 -13 0 -10 8 -14 23 -13 25 3 30
-12 6 -21 -25 -10 -33 -7 -44 14 -8 14 -8 26 0 40 11 21 19 24 44 14z m72 -6
c3 -4 14 -2 24 4 37 24 68 -34 34 -63 -20 -17 -48 -1 -52 30 -5 30 -26 21 -30
-12 -5 -42 -22 -32 -22 13 0 34 3 39 20 37 11 -2 22 -6 26 -9z m104 -16 c0
-13 5 -11 20 8 l19 25 9 -25 9 -25 7 23 c9 26 30 30 22 5 -2 -10 -7 -28 -11
-40 -8 -29 -23 -29 -34 -1 l-8 23 -7 -23 c-10 -29 -24 -28 -36 4 -13 33 -13
57 0 49 6 -3 10 -14 10 -23z m-6060 -153 c0 -5 -7 -9 -15 -9 -15 0 -20 12 -9
23 8 8 24 -1 24 -14z m-390 -4 c18 -22 4 -31 -25 -15 -18 10 -28 11 -36 3 -16
-16 -4 -30 30 -38 42 -9 57 -30 43 -60 -9 -19 -19 -25 -45 -25 -35 0 -77 23
-64 36 4 4 18 2 31 -6 27 -14 60 -7 54 12 -2 6 -19 17 -37 23 -29 9 -50 29
-51 47 0 4 7 14 16 22 20 20 68 21 84 1z m820 -62 c22 -57 25 -73 14 -73 -8 0
-17 7 -20 15 -4 9 -19 15 -39 15 -20 0 -35 -6 -39 -15 -3 -8 -12 -15 -20 -15
-12 0 -10 11 8 58 13 31 26 65 29 75 13 36 39 13 67 -60z m700 53 c0 -8 6 -17
13 -20 10 -5 10 -7 0 -12 -15 -7 -18 -74 -3 -74 6 0 10 -5 10 -11 0 -6 -10 -9
-22 -7 -19 2 -24 10 -26 43 -2 22 -9 44 -15 48 -9 6 -9 10 1 14 6 2 12 11 12
19 0 8 7 14 15 14 8 0 15 -6 15 -14z m-1392 -28 c7 -7 12 -20 12 -30 0 -14 -8
-18 -41 -18 -28 0 -39 -4 -36 -12 2 -8 19 -12 42 -11 32 2 35 1 25 -12 -15
-18 -61 -20 -78 -3 -7 7 -12 26 -12 43 0 38 16 55 50 55 14 0 31 -5 38 -12z
m146 -30 c5 -21 13 -38 16 -38 4 0 12 18 19 40 7 23 18 40 26 40 12 0 11 -9
-5 -50 -11 -28 -20 -53 -20 -55 0 -3 -9 -5 -19 -5 -14 0 -24 13 -36 49 -16 48
-17 49 -41 39 -19 -9 -24 -19 -24 -50 0 -27 -4 -38 -15 -38 -11 0 -15 13 -15
54 l0 54 53 -1 c51 -2 52 -2 61 -39z m116 -13 c0 -42 -3 -55 -15 -55 -12 0
-15 13 -15 55 0 42 3 55 15 55 12 0 15 -13 15 -55z m110 40 c17 -21 6 -29 -18
-14 -17 10 -23 10 -36 0 -9 -8 -16 -19 -16 -26 0 -7 7 -18 16 -26 13 -10 19
-10 36 0 24 15 35 7 18 -14 -31 -37 -90 -9 -90 44 0 43 63 69 90 36z m118 3
c7 -7 12 -20 12 -30 0 -14 -8 -18 -35 -18 -26 0 -35 -4 -35 -16 0 -13 7 -15
37 -9 33 6 35 5 24 -9 -16 -19 -62 -21 -79 -4 -15 15 -16 53 -2 79 12 22 59
26 78 7z m332 -3 c17 -21 6 -29 -18 -14 -17 10 -23 10 -36 0 -9 -8 -16 -19
-16 -26 0 -7 7 -18 16 -26 13 -10 19 -10 36 0 24 15 35 7 18 -14 -15 -18 -61
-20 -78 -3 -15 15 -16 53 -2 79 13 23 62 26 80 4z m120 0 c16 -19 5 -34 -12
-17 -18 18 -36 14 -49 -9 -9 -17 -8 -25 5 -37 14 -14 20 -15 37 -4 25 16 37 8
19 -13 -31 -37 -90 -9 -90 44 0 43 63 69 90 36z m122 -2 c38 -34 12 -93 -41
-93 -33 0 -51 16 -51 48 0 57 51 83 92 45z m58 -15 c0 -42 13 -63 34 -55 11 4
16 19 16 47 0 29 4 40 15 40 11 0 15 -11 15 -43 0 -49 -13 -67 -50 -67 -14 0
-31 5 -38 12 -14 14 -16 98 -2 98 6 0 10 -15 10 -32z m200 12 c16 -29 13 -90
-4 -90 -10 0 -16 14 -18 43 -2 34 -7 42 -23 42 -16 0 -21 -8 -23 -42 -2 -29
-8 -43 -18 -43 -10 0 -14 14 -14 54 l0 53 45 1 c34 1 47 -3 55 -18z m-1260
-730 c0 -5 -25 -10 -56 -10 -34 0 -53 4 -49 10 3 6 28 10 56 10 27 0 49 -4 49
-10z m1754 -12 c24 -34 21 -133 -4 -158 -25 -25 -124 -28 -158 -4 -19 13 -22
24 -22 84 0 49 4 73 16 84 11 12 35 16 84 16 60 0 71 -3 84 -22z m4594 10 c19
-19 16 -153 -4 -172 -13 -14 -52 -16 -270 -16 -157 0 -263 4 -275 10 -16 9
-19 22 -19 88 0 47 5 83 12 90 17 17 539 17 556 0z m-6307 -28 c22 -13 25 -30
4 -30 -22 0 -39 -38 -24 -56 6 -8 18 -14 25 -14 8 0 14 -4 14 -8 0 -22 -29
-32 -90 -32 -38 0 -71 5 -78 12 -18 18 -15 103 4 122 18 19 114 22 145 6z
m183 -12 l16 -22 16 22 c28 40 44 28 44 -33 0 -30 -4 -55 -10 -55 -5 0 -10 17
-10 38 l0 37 -23 -29 -23 -28 -14 28 -15 29 -3 -37 c-5 -58 -22 -45 -22 17 0
61 16 73 44 33z m254 -9 c5 -34 22 -49 22 -18 0 33 15 53 34 46 10 -4 16 -18
16 -37 0 -16 5 -30 10 -30 6 0 10 10 10 23 0 12 4 29 10 37 17 27 22 1 10 -49
-15 -65 -44 -71 -56 -13 l-8 37 -10 -37 c-14 -54 -40 -51 -55 6 -14 57 -14 69
2 64 6 -3 14 -15 15 -29z m242 -24 c0 -30 -4 -55 -10 -55 -5 0 -10 25 -10 55
0 30 5 55 10 55 6 0 10 -25 10 -55z m40 0 c0 -30 -4 -55 -10 -55 -5 0 -10 25
-10 55 0 30 5 55 10 55 6 0 10 -25 10 -55z m140 41 c0 -8 6 -17 13 -20 10 -5
10 -7 0 -12 -7 -3 -13 -14 -13 -24 0 -10 6 -20 13 -23 6 -2 9 -8 5 -12 -13
-14 -38 4 -38 29 0 14 -4 28 -10 31 -6 4 -5 13 3 25 14 23 27 26 27 6z m1046
0 c24 -18 13 -31 -14 -17 -16 9 -24 7 -36 -5 -20 -19 -20 -25 -2 -50 13 -17
18 -17 36 -6 12 7 24 11 27 8 10 -10 -19 -36 -40 -36 -53 0 -77 75 -35 104 28
20 39 20 64 2z m634 -1 c0 -8 -6 -15 -14 -15 -10 0 -16 -13 -18 -42 -4 -59
-28 -63 -28 -4 0 34 -4 46 -15 46 -8 0 -15 7 -15 15 0 11 12 15 45 15 33 0 45
-4 45 -15z m600 5 c0 -5 -7 -10 -16 -10 -8 0 -12 5 -9 10 3 6 10 10 16 10 5 0
9 -4 9 -10z m-770 -10 c0 -5 7 -10 15 -10 8 0 15 -4 15 -9 0 -5 -7 -11 -15
-15 -8 -3 -15 -12 -15 -21 0 -9 7 -18 15 -21 23 -9 18 -26 -7 -22 -16 2 -24
12 -30 38 -8 38 -2 70 13 70 5 0 9 -4 9 -10z m728 -10 c7 -12 8 -20 2 -20 -5
0 -10 -11 -10 -25 0 -14 5 -25 12 -25 9 0 9 -3 0 -12 -16 -16 -44 9 -37 33 3
9 1 20 -4 24 -7 4 -6 13 2 25 15 25 19 25 35 0z m-2458 -45 c0 -33 -2 -35 -34
-35 -36 0 -53 19 -33 39 6 6 19 11 30 11 10 0 16 4 13 9 -3 5 -16 7 -29 4 -21
-4 -21 -4 -3 11 29 23 56 4 56 -39z m165 35 c21 -23 21 -23 -20 -39 l-30 -11
28 4 c17 2 26 -1 24 -8 -2 -6 -17 -11 -33 -11 -25 0 -29 4 -32 30 -3 19 2 33
14 42 24 17 28 17 49 -7z m-503 -17 c2 -17 9 -28 18 -28 9 0 16 11 18 28 6 46
22 30 22 -22 0 -30 -5 -53 -14 -61 -17 -14 -63 -10 -56 5 3 6 9 9 14 7 5 -2
16 0 25 4 12 5 8 9 -14 13 -26 5 -30 11 -33 44 -4 42 15 52 20 10z m1660 -5
c2 -18 8 -33 13 -33 6 0 11 15 13 33 5 46 22 40 22 -8 0 -34 -4 -41 -24 -46
-36 -9 -46 2 -46 47 0 47 17 52 22 7z m118 22 c0 -4 -7 -13 -15 -20 -8 -7 -15
-23 -15 -36 0 -13 -4 -24 -10 -24 -5 0 -10 20 -10 44 0 40 2 44 25 44 14 0 25
-4 25 -8z m70 0 c0 -4 -6 -10 -14 -13 -8 -3 -16 -18 -18 -33 -5 -45 -28 -42
-28 4 0 21 2 41 4 43 8 8 56 7 56 -1z m68 -2 c20 -20 14 -38 -13 -38 -14 0
-25 -5 -25 -11 0 -7 10 -9 25 -5 14 4 25 2 25 -4 0 -16 -49 -23 -65 -10 -18
15 -19 34 -5 61 12 21 40 25 58 7z m106 -19 c10 -28 3 -59 -13 -59 -5 0 -11
15 -13 33 -4 42 -22 41 -26 -1 -4 -45 -26 -35 -24 11 0 20 1 38 1 40 1 1 16 3
33 2 26 0 34 -5 42 -26z m276 20 c0 -5 -7 -12 -15 -15 -9 -4 -15 -19 -15 -35
0 -16 -4 -29 -10 -29 -5 0 -10 19 -10 43 0 38 2 42 25 43 14 1 25 -2 25 -7z
m64 5 c11 -4 16 -19 16 -44 0 -37 -1 -38 -32 -37 -26 2 -34 7 -36 25 -3 18 1
22 22 22 14 0 26 5 26 11 0 7 -10 9 -25 5 -25 -6 -36 8 -12 17 18 8 23 8 41 1z
m104 -6 c14 -12 16 -78 2 -78 -5 0 -10 13 -10 29 0 17 -5 33 -11 37 -14 8 -29
-14 -29 -43 0 -13 -4 -23 -10 -23 -5 0 -10 20 -10 44 0 41 2 44 28 44 15 0 33
-5 40 -10z m90 -7 c3 -9 -2 -11 -17 -6 -12 4 -21 2 -21 -4 0 -6 9 -11 19 -11
23 0 34 -23 18 -39 -16 -16 -42 -14 -58 6 -13 15 -11 16 14 9 16 -4 27 -2 27
4 0 5 -9 10 -19 10 -23 0 -34 23 -18 39 15 15 49 10 55 -8z m76 13 c11 -4 16
-19 16 -44 0 -37 -1 -38 -32 -37 -26 2 -34 7 -36 25 -3 18 1 22 22 22 14 0 26
5 26 11 0 7 -10 9 -25 5 -25 -6 -36 8 -12 17 18 8 23 8 41 1z m104 -12 c2 -8
-5 -11 -20 -10 -17 2 -23 -2 -23 -17 0 -16 6 -19 29 -17 26 3 28 1 17 -12 -26
-31 -71 -12 -71 29 0 12 6 27 12 33 15 15 50 12 56 -6z m102 -27 c0 -25 -4
-45 -10 -45 -5 0 -10 20 -10 45 0 25 5 45 10 45 6 0 10 -20 10 -45z m88 33
c17 -17 15 -53 -3 -68 -20 -17 -61 -5 -68 19 -11 42 42 78 71 49z m100 -35 c4
-50 -15 -59 -20 -10 -4 40 -21 42 -28 3 -8 -46 -30 -45 -30 2 0 47 1 48 42 47
32 0 33 -2 36 -42z m83 30 c13 -15 11 -16 -13 -9 -35 8 -37 -1 -3 -14 14 -5
25 -16 25 -25 0 -16 -42 -31 -59 -20 -21 12 -11 25 14 19 14 -3 25 -3 25 0 0
4 -11 11 -25 16 -24 9 -32 29 -18 43 12 12 40 7 54 -10z m-3371 -34 c0 -15 -5
-20 -22 -17 -34 5 -37 38 -4 38 20 0 26 -5 26 -21z m75 -259 c17 14 19 7 5
-20 -7 -13 -7 -21 0 -25 5 -3 10 -14 10 -23 -1 -15 -3 -14 -16 3 -12 17 -16
18 -24 5 -5 -8 -12 -11 -16 -7 -4 3 -2 12 4 20 7 8 7 18 2 27 -15 23 -12 34 5
20 12 -10 18 -10 30 0z m48 -25 c-4 -17 0 -27 11 -31 9 -3 14 -10 11 -15 -14
-21 -35 5 -35 43 0 21 4 37 9 34 4 -3 6 -17 4 -31z m73 10 c4 -8 10 -15 15
-15 5 0 9 7 9 15 0 8 7 15 15 15 10 0 15 -11 15 -35 0 -19 -5 -35 -11 -35 -7
0 -9 9 -6 23 6 22 6 22 -9 2 -15 -20 -15 -20 -30 -1 -14 19 -14 19 -14 -3 0
-12 -4 -19 -10 -16 -17 10 -12 65 5 65 9 0 18 -7 21 -15z m-276 -36 c0 -3 -10
-11 -22 -18 -22 -11 -22 -11 -1 -6 18 5 20 2 16 -14 -7 -28 -28 -44 -50 -38
-14 4 -14 5 4 6 12 0 25 6 28 12 12 19 -2 21 -34 5 -38 -20 -54 -20 -21 0 23
14 23 14 3 9 -25 -7 -29 5 -13 36 9 15 20 19 50 17 22 -2 40 -6 40 -9z m829
-2 c14 4 14 3 1 -6 -8 -5 -15 -18 -15 -28 0 -14 -9 -18 -42 -20 -24 0 -46 4
-50 10 -4 6 0 8 10 4 10 -3 17 -2 17 3 0 6 -4 10 -8 10 -5 0 -9 7 -9 15 0 8 7
15 14 15 8 0 12 -4 8 -9 -6 -11 36 -44 44 -35 3 3 -2 10 -12 16 -15 8 -16 12
-6 24 8 10 16 11 22 5 5 -5 17 -7 26 -4z m126 -27 c-13 -14 -13 -19 -3 -23 9
-4 7 -6 -4 -6 -23 -1 -33 18 -14 25 9 3 16 11 16 16 0 6 -7 7 -16 4 -14 -5
-15 -4 -4 9 10 12 16 13 27 4 11 -10 11 -15 -2 -29z m70 0 c-13 -14 -13 -19
-3 -23 9 -4 7 -6 -4 -6 -23 -1 -33 18 -14 25 9 3 16 11 16 16 0 6 -7 7 -16 4
-14 -5 -15 -4 -4 9 10 12 16 13 27 4 11 -10 11 -15 -2 -29z m-175 -10 c-16
-31 -23 -18 -8 15 7 15 14 23 16 17 2 -6 -2 -21 -8 -32z m46 31 c-3 -5 1 -11
9 -15 18 -6 9 -36 -11 -36 -8 0 -17 7 -20 15 -8 19 2 45 16 45 6 0 9 -4 6 -9z
m171 -21 c-2 -29 -17 -24 -17 6 0 14 4 23 9 19 6 -3 9 -14 8 -25z m-935 -58
c-7 -2 -10 -8 -6 -13 6 -10 -9 -12 -19 -2 -10 10 14 34 26 26 8 -5 7 -8 -1
-11z m109 -19 c-12 -20 -14 -14 -5 12 4 9 9 14 11 11 3 -2 0 -13 -6 -23z m73
18 c3 -5 -1 -14 -10 -21 -12 -11 -12 -15 -2 -21 10 -7 9 -9 -4 -9 -22 0 -23
13 -2 31 14 12 14 14 -3 20 -16 7 -16 8 -1 8 9 1 19 -3 22 -8z m33 2 c-4 -3 1
-12 11 -19 14 -10 15 -15 5 -25 -11 -11 -15 -11 -25 0 -11 10 -10 11 5 6 10
-4 17 -2 17 4 0 6 -7 11 -15 11 -8 0 -15 7 -15 15 0 8 5 15 12 15 6 0 8 -3 5
-7z m-205 -45 c-9 -9 -15 -9 -24 1 -11 10 -10 11 5 6 10 -5 17 -2 17 6 0 7 3
9 7 6 4 -4 1 -13 -5 -19z m50 0 c-9 -9 -15 -9 -24 1 -11 10 -10 11 5 6 10 -5
17 -2 17 6 0 7 3 9 7 6 4 -4 1 -13 -5 -19z m78 12 c0 -5 -4 -10 -10 -10 -5 0
-10 5 -10 10 0 6 5 10 10 10 6 0 10 -4 10 -10z m1302 -225 c4 -35 22 -35 29 1
7 28 7 28 8 3 1 -35 -23 -56 -44 -39 -16 14 -21 60 -6 60 5 0 11 -11 13 -25z
m352 16 c4 -5 -4 -7 -16 -4 l-23 5 23 -19 c21 -18 22 -20 7 -33 -13 -11 -18
-11 -28 0 -10 10 -9 12 5 7 10 -3 20 -2 23 3 4 6 -1 10 -9 10 -18 0 -29 16
-21 30 8 12 32 13 39 1z m77 -32 l-10 -24 0 26 c-1 14 2 29 6 33 12 12 14 -9
4 -35z m627 12 c4 -26 -13 -42 -35 -34 -14 5 -18 45 -6 57 14 14 38 0 41 -23z
m44 20 c-11 -7 -11 -9 2 -14 18 -7 21 -33 5 -43 -6 -3 -18 0 -26 9 -19 18 -8
57 15 57 13 0 14 -2 4 -9z m39 -32 c-6 -16 -10 -18 -10 -7 -1 22 12 55 16 42
2 -6 -1 -22 -6 -35z m67 12 c4 -29 -9 -44 -31 -35 -17 6 -23 44 -10 58 14 14
38 0 41 -23z m37 9 c-5 -16 -3 -19 11 -13 12 4 15 2 12 -8 -4 -12 -35 -14 -46
-4 -4 3 21 45 26 45 2 0 1 -9 -3 -20z m46 -21 c-6 -16 -10 -18 -10 -7 -1 22
12 55 16 42 2 -6 -1 -22 -6 -35z m59 29 c0 -6 -8 -20 -17 -31 -17 -19 -17 -20
0 -14 9 4 17 2 17 -3 0 -14 -27 -12 -36 2 -4 6 0 16 9 23 21 15 22 29 2 21 -8
-3 -15 -1 -15 4 0 6 9 10 20 10 11 0 20 -5 20 -12z m65 -9 c10 -30 -18 -57
-39 -39 -16 13 -21 42 -9 53 14 14 42 6 48 -14z m51 9 c4 -6 0 -16 -9 -23 -18
-13 -24 -30 -7 -20 6 3 10 1 10 -4 0 -15 -17 -14 -26 1 -4 6 0 16 9 23 21 15
22 29 2 21 -8 -3 -15 -1 -15 4 0 14 27 12 36 -2z m54 -2 c0 -8 -4 -18 -10 -21
-5 -3 -10 -11 -10 -16 0 -6 5 -7 10 -4 6 3 10 1 10 -4 0 -15 -27 -14 -36 0 -4
7 1 16 10 21 20 11 21 32 1 24 -8 -3 -15 -1 -15 4 0 6 9 10 20 10 11 0 20 -6
20 -14z m290 -6 c0 -11 -6 -20 -14 -20 -8 0 -17 -6 -19 -12 -3 -7 -6 2 -6 20
-1 26 3 32 19 32 13 0 20 -7 20 -20z m147 -27 c-3 -10 -5 -2 -5 17 0 19 2 27
5 18 2 -10 2 -26 0 -35z m781 20 c9 -26 7 -28 -19 -28 -16 0 -29 1 -29 2 0 1
4 13 10 27 12 34 26 33 38 -1z m59 -20 c-3 -10 -5 -2 -5 17 0 19 2 27 5 18 2
-10 2 -26 0 -35z m757 38 c4 -5 -2 -7 -13 -4 -24 6 -36 -13 -21 -33 10 -11 16
-12 26 -3 11 9 14 9 14 0 0 -19 -31 -25 -47 -8 -19 19 -8 57 17 57 10 0 21 -4
24 -9z m236 -21 c0 -16 -2 -30 -4 -30 -2 0 -6 14 -8 30 -3 17 -1 30 4 30 4 0
8 -13 8 -30z m188 -31 c-19 -13 -33 -5 -36 19 -3 20 7 27 31 23 4 0 8 5 8 12
1 6 4 -1 6 -17 3 -17 -1 -32 -9 -37z m-5410 -7 c8 -2 12 7 12 28 0 18 4 29 10
25 15 -9 12 -51 -4 -64 -24 -20 -46 -2 -45 38 1 35 2 35 8 7 3 -16 12 -31 19
-34z m89 41 c3 -7 -4 -10 -19 -7 l-23 5 23 -11 c15 -6 22 -17 20 -27 -4 -20
-39 -25 -45 -6 -3 7 4 10 19 7 l23 -5 -22 12 c-23 12 -29 29 -16 43 10 10 36
3 40 -11z m69 -4 c19 -21 18 -21 -4 -39 -29 -24 -52 -15 -52 19 0 46 24 55 56
20z m64 11 c0 -5 -4 -10 -10 -10 -5 0 -11 -12 -11 -27 l-2 -28 -4 28 c-2 15
-9 27 -14 27 -5 0 -9 5 -9 10 0 6 11 10 25 10 14 0 25 -4 25 -10z m1316 -15
c-1 -26 -10 -32 -21 -15 -4 6 -1 17 5 25 17 20 18 19 16 -10z m79 -4 c-3 -3
-10 1 -15 9 -8 12 -10 10 -10 -8 0 -13 4 -20 10 -17 6 3 10 1 10 -4 0 -16 -16
-13 -30 4 -18 21 6 51 27 34 7 -7 11 -14 8 -18z m54 -4 c-1 -17 -2 -18 -6 -4
-2 9 -8 17 -13 17 -5 0 -11 -8 -13 -17 -4 -14 -5 -13 -6 4 -1 21 16 35 32 26
4 -2 6 -14 6 -26z m31 19 c0 -8 3 -23 6 -33 5 -12 4 -15 -3 -8 -16 15 -26 55
-14 55 6 0 11 -6 11 -14z m140 -21 c0 -17 -27 -27 -36 -14 -3 6 -3 13 0 16 3
4 6 1 6 -6 0 -7 5 -9 10 -6 7 4 6 14 -2 28 -10 20 -10 21 5 8 10 -7 17 -19 17
-26z m85 6 c-3 -3 -10 1 -15 9 -7 10 -10 11 -10 3 0 -20 4 -28 13 -25 5 1 6
-2 2 -7 -7 -13 -35 -3 -35 13 0 22 22 37 37 24 7 -6 11 -13 8 -17z m25 15 c0
-8 3 -23 6 -33 5 -12 4 -15 -3 -8 -16 15 -26 55 -14 55 6 0 11 -6 11 -14z
m1378 2 c8 -8 15 -8 25 0 12 10 14 7 13 -17 -1 -22 -4 -27 -13 -19 -9 7 -18 6
-29 -3 -14 -11 -19 -10 -35 10 -17 21 -24 20 -20 -1 0 -5 -4 -8 -10 -8 -6 0
-9 8 -7 18 2 9 11 17 20 17 9 0 20 4 24 8 10 10 18 9 32 -5z m167 2 c4 -6 1
-9 -7 -8 -7 2 -13 -4 -13 -12 0 -8 7 -14 15 -12 11 3 12 1 3 -8 -14 -15 -33
-4 -33 19 0 29 22 42 35 21z m35 0 c0 -5 -4 -10 -10 -10 -5 0 -10 5 -10 10 0
6 5 10 10 10 6 0 10 -4 10 -10z m677 -21 c0 -29 -2 -30 -13 -14 -10 14 -11 22
-3 32 15 18 16 17 16 -18z m113 8 c0 -8 -3 -8 -9 2 -6 9 -11 10 -15 2 -10 -15
3 -33 16 -25 7 4 8 2 4 -4 -4 -7 -12 -12 -17 -12 -16 0 -22 29 -9 45 13 16 30
11 30 -8z m46 11 c4 -7 3 -8 -4 -4 -7 4 -12 2 -12 -5 0 -7 -3 -10 -6 -6 -6 5
3 27 11 27 2 0 7 -5 11 -12z m40 0 c4 -7 3 -8 -4 -4 -7 4 -12 2 -12 -5 0 -7
-3 -10 -6 -6 -6 5 3 27 11 27 2 0 7 -5 11 -12z m63 -9 c4 -12 2 -12 -12 0 -15
12 -17 11 -17 -9 0 -17 4 -21 18 -15 13 5 14 3 5 -6 -14 -14 -33 -3 -33 20 0
33 29 41 39 10z m581 -9 c0 -27 -19 -35 -38 -17 -12 13 -13 19 -3 31 16 19 41
10 41 -14z m77 -1 c1 -14 0 -17 -3 -6 -3 9 -10 17 -15 17 -5 0 -10 -8 -10 -17
-1 -17 -2 -17 -6 0 -2 9 -8 17 -13 17 -5 0 -11 -8 -13 -17 -4 -14 -5 -13 -6 4
-2 39 63 41 66 2z m63 1 c0 -10 -4 -21 -8 -24 -5 -3 -9 8 -9 24 0 16 4 27 9
24 4 -3 8 -14 8 -24z m76 12 c1 -7 0 -8 -3 -2 -7 14 -23 2 -23 -17 0 -10 6
-13 18 -8 13 5 14 3 5 -6 -14 -14 -33 -3 -33 20 0 31 30 42 36 13z m34 8 c0
-5 -4 -10 -10 -10 -5 0 -10 5 -10 10 0 6 5 10 10 10 6 0 10 -4 10 -10z m56 -8
c1 -7 0 -8 -3 -2 -8 18 -23 11 -23 -11 0 -16 4 -20 18 -14 13 5 14 3 5 -6 -14
-14 -33 -3 -33 20 0 31 30 42 36 13z m-5495 -21 c35 -35 37 -71 7 -105 -50
-55 -138 -26 -138 45 0 39 16 68 43 79 38 15 58 11 88 -19z m1639 22 c0 -5 -5
-15 -10 -23 -8 -12 -10 -11 -10 8 0 12 5 22 10 22 6 0 10 -3 10 -7z m60 -23
c0 -16 -4 -30 -8 -30 -5 0 -7 14 -4 30 2 17 6 30 8 30 2 0 4 -13 4 -30z m440
20 c12 19 13 8 0 -24 -13 -35 -25 -33 -26 5 -1 20 2 26 7 17 7 -11 11 -10 19
2z m1438 -10 c10 23 11 23 11 4 1 -21 -21 -39 -33 -27 -3 4 -6 16 -5 27 1 18
2 18 9 -4 l7 -25 11 25z m825 0 c-3 -11 -7 -20 -9 -20 -2 0 -4 9 -4 20 0 11 4
20 9 20 5 0 7 -9 4 -20z m897 -10 c0 -16 -4 -30 -8 -30 -5 0 -7 14 -4 30 2 17
6 30 8 30 2 0 4 -13 4 -30z m-1629 -7 c13 -16 12 -17 -3 -4 -10 7 -18 15 -18
17 0 8 8 3 21 -13z m834 -2 c-8 -14 -25 -14 -25 0 0 5 5 7 10 4 6 -3 10 -1 10
6 0 7 3 10 6 6 3 -3 3 -10 -1 -16z m46 -4 c-8 -8 -14 -7 -23 2 -10 11 -10 13
0 7 6 -4 12 -2 12 4 0 6 5 8 11 4 8 -4 8 -9 0 -17z m890 6 c13 -16 12 -17 -3
-4 -10 7 -18 15 -18 17 0 8 8 3 21 -13z m-4487 -11 c-6 -4 -14 -14 -17 -22 -4
-10 -6 -8 -6 8 -1 15 5 22 17 22 10 0 13 -3 6 -8z m49 1 c-7 -2 -13 -16 -13
-29 0 -15 4 -23 10 -19 6 4 8 11 5 16 -4 5 -1 9 4 9 14 0 14 -27 1 -35 -6 -4
-17 -1 -25 5 -12 10 -18 10 -29 1 -10 -8 -16 -9 -21 -1 -4 6 -1 9 7 8 7 -2 12
2 11 9 -2 8 4 10 15 6 9 -3 14 -3 10 2 -9 10 10 35 26 34 7 0 6 -2 -1 -6z m62
-4 c4 -5 -1 -19 -10 -29 -13 -14 -13 -19 -3 -23 9 -4 9 -6 1 -6 -21 -2 -26 22
-8 36 17 12 13 18 -8 14 -5 -1 -6 3 -2 9 8 13 22 13 30 -1z m533 -70 c-1 -23
-4 -27 -15 -18 -10 9 -13 8 -13 0 0 -7 -4 -10 -10 -6 -5 3 -7 12 -5 20 3 8 7
22 10 30 8 25 34 5 33 -26z m179 -16 c-3 -10 -5 -2 -5 17 0 19 2 27 5 18 2
-10 2 -26 0 -35z m33 15 c0 -17 -3 -28 -7 -25 -9 10 -10 57 -1 57 4 0 8 -14 8
-32z m-155 12 c5 -8 11 -7 21 1 11 9 18 9 25 2 8 -8 7 -11 -4 -10 -9 1 -15 -2
-14 -8 1 -5 15 -10 30 -10 23 -1 27 3 23 18 -3 11 0 17 7 14 7 -2 12 -12 12
-23 0 -15 -8 -19 -40 -21 -26 -2 -42 3 -48 13 -4 8 -12 12 -18 9 -5 -4 -9 0
-9 7 0 9 -3 9 -10 -2 -7 -11 -5 -17 8 -22 16 -6 16 -7 0 -7 -21 -1 -32 15 -24
34 6 17 32 20 41 5z m-1527 -14 c-7 -8 -15 -12 -17 -11 -5 6 10 25 20 25 5 0
4 -6 -3 -14z m54 7 c-10 -4 -9 -8 4 -17 20 -15 11 -37 -14 -35 -15 1 -15 2 1
6 21 5 23 23 2 23 -16 0 -20 12 -8 23 3 4 11 7 17 6 6 0 5 -3 -2 -6z m51 0
c-16 -6 -17 -43 -2 -43 6 0 8 7 4 18 -5 14 -4 15 6 5 15 -15 -2 -40 -20 -29
-21 14 -11 57 13 55 6 0 5 -3 -1 -6z m62 -4 c4 -6 -2 -19 -14 -30 -12 -11 -21
-15 -21 -9 0 6 7 13 15 16 8 4 15 11 15 16 0 6 -7 7 -16 4 -8 -3 -12 -2 -9 4
8 13 22 13 30 -1z m-156 -45 c-6 -7 -16 -11 -23 -7 -7 5 -5 9 7 11 9 2 14 8
11 14 -4 7 -2 8 5 4 9 -6 9 -11 0 -22z m-4 -269 c6 0 11 12 13 28 4 32 22 37
22 5 0 -33 -14 -51 -36 -46 -14 2 -19 13 -21 38 -1 34 -1 34 5 5 4 -16 12 -30
17 -30z m91 43 c5 -8 2 -9 -9 -5 -10 3 -17 2 -17 -2 0 -5 7 -11 15 -15 25 -9
18 -36 -10 -36 -14 0 -25 5 -25 11 0 6 7 9 15 5 20 -7 19 4 -2 19 -17 13 -10
35 12 35 8 0 17 -5 21 -12z m72 -4 c8 -14 10 -14 21 0 15 18 47 21 56 5 11
-16 -3 -23 -19 -10 -17 14 -31 -2 -22 -25 5 -12 10 -13 27 -3 17 9 20 8 17 -3
-7 -20 -37 -22 -58 -3 -16 14 -18 14 -23 0 -4 -8 -18 -15 -32 -15 -22 0 -25 4
-25 35 0 30 3 35 25 35 13 0 28 -7 33 -16z m1622 5 c13 -9 12 -10 -2 -5 -10 3
-20 1 -23 -3 -2 -5 5 -11 16 -14 12 -3 19 -12 17 -19 -5 -15 -48 -24 -48 -10
0 6 10 8 23 5 l22 -5 -24 20 c-33 27 -16 56 19 31z m81 -30 l-9 -34 -1 31 c-1
17 2 34 6 37 12 13 14 -1 4 -34z m627 2 c-4 -35 -41 -37 -46 -2 -4 26 13 42
35 34 8 -3 13 -16 11 -32z m42 29 c-13 -8 -12 -11 5 -24 15 -11 17 -17 8 -27
-16 -16 -43 -4 -43 19 0 20 18 42 35 42 5 0 3 -5 -5 -10z m44 -29 c-4 -17 -9
-30 -11 -27 -3 2 -2 19 2 36 9 41 17 33 9 -9z m61 3 c0 -22 -5 -29 -20 -29
-23 0 -32 30 -14 51 18 22 34 11 34 -22z m90 -4 c-4 -17 -9 -29 -12 -26 -3 2
-2 19 2 36 4 17 9 29 12 26 3 -2 2 -19 -2 -36z m52 24 c4 -10 -1 -22 -11 -30
-16 -12 -16 -13 1 -17 14 -4 14 -5 -4 -6 -27 -1 -29 6 -6 31 15 17 15 18 -1
18 -9 0 -14 5 -11 10 9 15 25 12 32 -6z m63 1 c18 -22 3 -57 -23 -53 -25 3
-34 32 -17 53 16 19 24 19 40 0z m57 -1 c4 -10 -1 -22 -11 -30 -16 -12 -16
-13 1 -17 14 -4 14 -5 -4 -6 -26 -1 -30 11 -8 29 16 14 10 34 -7 24 -7 -4 -8
-2 -4 4 10 17 26 15 33 -4z m52 2 c10 -11 7 -17 -9 -29 -20 -14 -21 -15 -3
-20 15 -4 14 -5 -4 -6 -26 -1 -31 17 -8 25 8 4 15 12 15 20 0 8 -6 11 -17 7
-11 -4 -14 -3 -9 5 10 16 21 15 35 -2z m291 0 c6 -8 19 -12 28 -9 15 6 15 5 3
-10 -7 -9 -10 -17 -7 -17 4 0 4 -6 0 -12 -6 -9 -10 -6 -14 10 l-5 23 -22 -21
-23 -21 0 29 c0 43 17 55 40 28z m1748 -6 c4 -12 3 -13 -10 -2 -12 10 -18 9
-28 -2 -15 -20 -3 -39 21 -33 11 3 17 1 13 -4 -3 -5 -14 -9 -24 -9 -23 0 -36
36 -19 56 15 18 40 15 47 -6z m-3558 -16 c0 -32 22 -27 32 7 6 22 7 21 5 -6
-3 -51 -56 -44 -57 8 0 9 5 17 10 17 6 0 10 -12 10 -26z m275 -9 c0 -14 -2
-25 -6 -25 -9 0 -19 42 -13 52 9 14 17 1 19 -27z m247 5 c5 -36 -8 -41 -14 -5
-4 21 -1 35 8 35 1 0 4 -13 6 -30z m739 -23 c-8 -8 -11 -5 -12 14 -1 17 -3 19
-6 6 -2 -9 -9 -15 -14 -12 -5 4 -5 14 2 27 11 20 11 20 26 -2 11 -16 12 -25 4
-33z m699 23 c0 -23 -5 -30 -19 -30 -11 0 -22 6 -25 13 -5 10 -7 10 -12 0 -8
-18 -41 -16 -47 1 -9 22 19 41 38 26 11 -9 19 -8 37 4 29 21 28 21 28 -14z
m136 5 c-2 -7 1 -18 7 -25 9 -10 9 -11 -3 -8 -8 3 -16 17 -18 32 -2 19 0 26 8
21 6 -4 9 -13 6 -20z m643 -6 c9 -27 9 -30 -4 -19 -12 10 -18 10 -30 0 -18
-15 -18 -10 -5 24 13 35 26 33 39 -5z m63 1 c-3 -20 -10 -30 -22 -30 -28 0
-32 27 -7 45 30 21 34 19 29 -15z m988 0 c0 -16 -2 -30 -4 -30 -2 0 -6 14 -8
30 -3 17 -1 30 4 30 4 0 8 -13 8 -30z m80 9 c0 -5 -4 -9 -10 -9 -5 0 -10 7
-10 16 0 8 5 12 10 9 6 -3 10 -10 10 -16z m120 -10 c0 -26 -3 -30 -22 -27 -32
4 -35 36 -6 47 13 6 24 10 26 10 1 1 2 -13 2 -30z m-5590 -30 c0 -5 -8 -6 -17
-2 -12 3 -10 0 5 -12 18 -13 21 -20 11 -31 -16 -19 -4 -30 16 -14 22 18 19 56
-7 80 -12 11 -19 23 -15 26 11 11 57 -44 57 -69 0 -13 -11 -34 -24 -46 l-25
-23 -23 22 c-24 22 -34 65 -17 75 19 12 9 26 -11 15 -27 -14 -26 -57 2 -87 26
-28 6 -31 -22 -3 -26 26 -25 68 2 97 l22 23 23 -22 c13 -12 23 -25 23 -29z
m1667 26 c-7 -13 -14 -20 -15 -14 -5 14 6 39 17 39 5 0 4 -11 -2 -25z m58 -10
c0 -16 -6 -29 -13 -31 -7 -1 -8 0 -2 3 14 6 13 53 -1 53 -6 0 -9 -9 -6 -20 6
-22 -8 -28 -16 -6 -6 16 12 38 28 33 5 -2 10 -16 10 -32z m64 14 c4 -12 2 -12
-12 0 -15 11 -17 11 -17 -2 0 -8 6 -18 13 -20 7 -3 6 -6 -5 -6 -23 -1 -32 17
-17 35 14 17 31 14 38 -7z m48 -10 c1 -22 1 -22 -4 -1 -2 12 -9 22 -14 22 -5
0 -9 -10 -10 -22 0 -13 -3 -17 -6 -10 -7 19 5 44 20 40 6 -3 13 -15 14 -29z
m171 3 c3 -17 -2 -22 -17 -22 -22 0 -28 14 -11 25 6 4 7 11 4 17 -4 6 -1 9 7
6 8 -3 15 -14 17 -26z m80 7 c3 -11 2 -11 -6 -1 -7 11 -10 11 -15 -2 -4 -9 1
-16 11 -19 16 -4 16 -5 0 -6 -21 -1 -32 15 -24 35 7 18 28 14 34 -7z m1577 11
c3 -6 -1 -7 -9 -4 -11 4 -16 0 -16 -11 0 -11 5 -15 15 -11 8 3 15 1 15 -4 0
-13 -27 -13 -35 0 -8 14 1 40 14 40 5 0 13 -4 16 -10z m767 -17 c-3 -16 -7
-22 -10 -15 -4 13 4 42 11 42 2 0 2 -12 -1 -27z m54 9 c1 -7 0 -8 -3 -2 -2 5
-9 8 -14 4 -15 -9 -10 -22 9 -27 15 -4 15 -5 0 -6 -21 -1 -32 15 -24 35 7 18
28 14 32 -4z m45 9 c-9 -6 -10 -11 -2 -15 17 -11 13 -26 -6 -26 -14 0 -15 2
-5 9 11 7 10 9 -3 15 -20 7 -10 26 13 26 13 0 14 -2 3 -9z m41 0 c-11 -7 -10
-9 3 -15 20 -7 10 -26 -13 -26 -13 0 -14 2 -3 9 9 6 10 11 2 15 -13 9 -5 26
12 26 8 0 8 -3 -1 -9z m64 -9 c1 -7 0 -8 -3 -2 -7 15 -23 12 -23 -4 0 -8 8
-17 18 -19 13 -4 12 -5 -4 -6 -25 -1 -38 21 -21 38 13 13 30 10 33 -7z m582
-5 c4 -20 -25 -34 -40 -19 -15 15 -1 44 19 40 10 -2 19 -11 21 -21z m79 -8 l2
-24 -9 25 -8 25 -8 -25 -8 -25 -7 25 -6 25 -11 -25 c-10 -23 -11 -23 -11 -4
-1 28 6 33 37 30 20 -2 28 -9 29 -27z m61 18 c14 -16 4 -32 -25 -41 -18 -6
-22 -4 -18 8 3 9 7 23 10 31 5 18 19 19 33 2z m78 -5 c1 -7 0 -8 -3 -2 -7 15
-23 12 -23 -4 0 -8 8 -17 18 -19 13 -4 11 -5 -5 -6 -16 -1 -23 5 -23 17 0 32
30 43 36 14z m90 0 c1 -7 0 -8 -3 -2 -7 15 -23 12 -23 -4 0 -8 8 -17 18 -19
15 -4 15 -5 0 -6 -21 -1 -32 15 -24 35 7 18 28 14 32 -4z m-3356 -2 c12 19 13
8 0 -24 -13 -35 -25 -33 -26 5 -1 20 2 26 7 17 7 -11 11 -10 19 2z m1438 -5
c11 19 11 19 12 -2 0 -16 -6 -23 -20 -23 -14 0 -20 6 -19 23 0 20 1 21 8 2 8
-19 8 -19 19 0z m-2566 -28 c-2 -9 2 -17 8 -17 5 0 10 9 10 21 0 14 5 19 17
17 11 -2 17 -12 17 -28 0 -23 -3 -25 -44 -25 -44 0 -50 6 -41 51 3 15 36 -4
33 -19z m4433 13 c3 -5 2 -10 -4 -10 -5 0 -13 5 -16 10 -3 6 -2 10 4 10 5 0
13 -4 16 -10z m-5309 -62 c5 -7 3 -8 -6 -3 -10 6 -12 4 -6 -11 5 -14 4 -16 -5
-7 -6 6 -8 16 -5 22 9 14 13 14 22 -1z m1461 -27 c1 -24 -1 -30 -8 -20 -5 8
-6 22 -3 32 3 9 1 17 -5 17 -6 0 -11 -11 -11 -25 0 -14 -4 -25 -8 -25 -5 0 -7
14 -4 31 6 43 36 35 39 -10z m180 -8 c-3 -10 -5 -2 -5 17 0 19 2 27 5 18 2
-10 2 -26 0 -35z m33 11 c0 -35 -15 -30 -16 6 -1 16 3 27 7 24 5 -3 9 -16 9
-30z m-1629 6 c6 0 7 5 3 12 -4 7 -3 8 5 4 14 -9 5 -26 -15 -26 -8 0 -14 8
-13 18 0 10 3 12 6 5 2 -7 9 -13 14 -13z m50 0 c6 0 7 5 4 10 -3 6 -2 10 3 10
12 0 12 -49 0 -56 -5 -4 -15 -1 -21 5 -9 9 -8 11 6 6 10 -4 17 -2 17 4 0 6 -7
11 -15 11 -8 0 -15 8 -14 18 0 10 3 12 6 5 2 -7 9 -13 14 -13z m1427 -2 c9 -9
12 -9 12 0 0 7 9 12 20 12 11 0 20 -4 20 -9 0 -5 -6 -8 -14 -7 -8 0 -15 -3
-15 -9 0 -5 7 -9 16 -8 10 1 12 -2 5 -9 -7 -7 -19 -4 -39 11 -18 15 -29 18
-31 11 -3 -7 2 -16 9 -21 11 -7 11 -9 -3 -9 -21 0 -32 16 -24 35 7 18 28 19
44 3z m97 -14 c0 -10 -8 -20 -17 -22 -12 -2 -18 3 -18 15 0 15 2 16 11 3 9
-12 10 -10 6 8 -4 15 -1 22 6 19 7 -2 12 -12 12 -23z m-1613 -16 c-9 -9 -15
-9 -24 1 -11 10 -10 11 5 6 10 -5 17 -2 17 6 0 7 3 9 7 6 4 -4 1 -13 -5 -19z
m48 -2 c-7 -7 -13 -7 -20 0 -6 6 -3 10 10 10 13 0 16 -4 10 -10z m1411 -299
c-8 -8 -16 -9 -29 -1 -19 12 -29 54 -13 54 6 0 11 -12 11 -26 0 -35 24 -26 29
12 l5 29 4 -29 c2 -16 -1 -33 -7 -39z m325 52 c4 -8 -1 -9 -17 -4 l-24 6 24
-19 c13 -11 21 -24 17 -31 -9 -14 -33 -14 -42 1 -5 8 -2 9 9 5 9 -3 19 -2 22
3 4 6 -1 10 -9 10 -18 0 -29 16 -21 30 8 13 32 13 41 -1z m75 -30 l-10 -24 0
26 c-1 14 2 29 6 33 12 12 14 -9 4 -35z m624 6 c0 -23 -4 -30 -20 -30 -21 0
-31 25 -21 51 11 28 41 12 41 -21z m48 27 c-17 -11 -20 -44 -4 -50 10 -3 11 2
6 19 -6 19 -5 22 5 12 15 -14 6 -43 -14 -43 -8 0 -18 9 -21 20 -7 22 9 50 29
50 8 0 8 -2 -1 -8z m41 -31 c-4 -17 -9 -30 -11 -27 -3 2 -2 19 2 36 9 41 17
33 9 -9z m61 4 c0 -23 -4 -30 -20 -30 -21 0 -31 25 -21 51 11 28 41 12 41 -21z
m86 -6 c-6 -24 -9 -28 -10 -12 -1 24 9 56 16 50 2 -3 0 -20 -6 -38z m56 25 c4
-10 -1 -20 -13 -27 -17 -10 -17 -11 1 -18 19 -7 18 -8 -2 -8 -26 -1 -31 24 -8
33 8 3 15 10 15 17 0 6 -7 8 -16 5 -8 -3 -12 -2 -9 4 9 15 25 12 32 -6z m67
-6 c8 -14 7 -22 -7 -35 -16 -16 -18 -16 -33 -1 -10 10 -14 23 -9 37 8 25 33
24 49 -1z m51 11 c4 -5 -1 -19 -10 -29 -15 -17 -15 -19 2 -23 14 -4 14 -5 -4
-6 -26 -1 -32 24 -8 33 8 3 15 10 15 17 0 6 -7 9 -15 5 -8 -3 -15 -1 -15 4 0
13 27 13 35 -1z m52 -5 c4 -10 -1 -20 -13 -27 -17 -10 -17 -11 1 -18 16 -6 17
-8 3 -8 -24 -1 -31 14 -13 29 20 16 19 34 -1 26 -8 -3 -12 -2 -9 4 9 15 25 12
32 -6z m291 -6 c2 -9 -6 -22 -17 -28 -19 -10 -21 -8 -21 20 0 25 4 31 17 28
10 -2 19 -11 21 -20z m930 -7 c9 -26 8 -28 -18 -27 -25 1 -26 3 -18 29 13 35
23 34 36 -2z m816 20 c4 -5 -2 -7 -13 -4 -22 6 -34 -9 -25 -31 4 -12 13 -15
28 -10 16 5 18 4 9 -6 -14 -15 -41 -7 -49 15 -11 28 35 61 50 36z m236 -28 c0
-32 -5 -28 -14 10 -4 19 -3 26 4 22 5 -3 10 -18 10 -32z m191 -26 c-13 -13
-41 -1 -41 19 0 9 9 18 20 21 11 3 21 10 21 17 1 6 4 -2 6 -18 3 -16 0 -33 -6
-39z m-3707 20 c1 -15 -2 -27 -6 -27 -4 0 -8 6 -8 14 0 8 -3 22 -7 32 -4 11
-2 15 7 12 7 -2 14 -16 14 -31z m248 3 c5 -33 -6 -28 -17 8 -3 12 -2 22 3 22
5 0 12 -14 14 -30z m721 10 c-3 -11 -9 -20 -15 -20 -5 0 -4 9 2 20 6 11 12 20
14 20 2 0 2 -9 -1 -20z m708 -33 c-7 -7 -15 -6 -26 3 -12 10 -18 10 -30 0 -19
-15 -47 4 -38 26 6 17 39 19 46 2 4 -9 8 -10 14 -2 4 6 15 13 23 16 18 6 27
-29 11 -45z m149 43 c0 -5 -4 -10 -10 -10 -5 0 -10 5 -10 10 0 6 5 10 10 10 6
0 10 -4 10 -10z m691 -43 c-7 -7 -15 -6 -26 3 -21 17 -19 29 8 39 18 7 23 5
25 -11 2 -11 -1 -25 -7 -31z m1079 43 c0 -5 -4 -10 -10 -10 -5 0 -10 5 -10 10
0 6 5 10 10 10 6 0 10 -4 10 -10z m-3742 -32 c-2 -17 -9 -33 -16 -34 -7 -1 -8
0 -2 3 14 6 13 53 -1 53 -7 0 -9 -9 -6 -22 l6 -23 -20 24 c-17 21 -24 20 -20
-1 0 -5 -3 -8 -9 -8 -10 0 -14 23 -5 32 3 2 21 5 41 6 34 1 35 0 32 -30z m58
20 c5 -8 2 -9 -9 -5 -11 4 -17 1 -17 -8 0 -8 5 -15 12 -15 6 0 8 -3 5 -6 -11
-11 -36 16 -30 32 6 17 29 18 39 2z m53 -10 c-1 -17 -2 -19 -6 -5 -2 9 -8 17
-13 17 -5 0 -11 -8 -13 -17 -4 -14 -5 -12 -6 5 -1 16 5 22 19 22 14 0 20 -6
19 -22z m166 -4 c0 -21 -27 -27 -31 -6 -1 7 0 8 3 2 2 -5 9 -10 14 -10 6 0 5
9 -2 21 -9 17 -8 20 3 17 7 -3 13 -13 13 -24z m90 15 c4 -6 0 -9 -10 -7 -10 2
-20 -3 -23 -11 -3 -10 0 -12 12 -8 9 4 16 2 16 -3 0 -13 -27 -13 -35 0 -10 16
2 40 19 40 8 0 18 -5 21 -11z m65 -19 c5 0 11 8 13 18 4 14 5 15 6 1 0 -9 -7
-26 -16 -38 -18 -22 -18 -22 -19 16 -1 21 1 30 3 21 3 -10 8 -18 13 -18z
m1281 17 c-6 -8 -8 -17 -4 -20 3 -4 1 -7 -5 -7 -13 0 -16 22 -5 33 12 13 25 7
14 -6z m168 -7 l11 25 -3 -25 c-1 -14 -9 -26 -19 -28 -14 -3 -18 3 -17 25 l1
28 8 -25 7 -25 12 25z m49 13 c-10 -2 -18 -11 -18 -20 0 -10 6 -13 18 -8 14 5
15 4 5 -6 -10 -10 -16 -10 -24 -2 -16 16 -4 43 18 42 17 -1 17 -2 1 -6z m775
-13 c-3 -11 -7 -20 -9 -20 -2 0 -4 9 -4 20 0 11 4 20 9 20 5 0 7 -9 4 -20z
m57 10 c0 -5 -5 -9 -11 -7 -19 4 -21 -21 -2 -26 16 -4 16 -5 1 -6 -20 -1 -32
15 -24 34 6 17 36 21 36 5z m41 1 c-9 -6 -10 -11 -2 -15 13 -9 5 -26 -12 -26
-7 0 -6 4 3 10 12 8 12 10 -3 16 -20 7 -13 24 11 24 13 0 14 -2 3 -9z m41 0
c-11 -7 -10 -9 3 -14 9 -4 18 -1 21 8 7 17 30 20 39 5 3 -6 -1 -7 -9 -4 -11 4
-16 0 -16 -10 0 -9 5 -16 12 -16 6 0 8 -3 5 -6 -4 -4 -13 -1 -21 5 -10 8 -16
9 -21 1 -3 -5 -11 -10 -16 -10 -6 0 -8 4 -4 9 3 5 1 12 -5 16 -16 10 -12 25 8
25 13 0 14 -2 4 -9z m646 -14 c4 -20 -25 -34 -40 -19 -15 15 -1 44 19 40 10
-2 19 -11 21 -21z m51 1 c-1 -17 -2 -19 -6 -5 -2 9 -8 17 -13 17 -5 0 -11 -8
-13 -17 -4 -14 -5 -12 -6 5 -1 16 5 22 19 22 14 0 20 -6 19 -22z m31 2 c0 -11
-2 -20 -4 -20 -2 0 -6 9 -9 20 -3 11 -1 20 4 20 5 0 9 -9 9 -20z m64 5 c3 -8
-4 -21 -17 -30 -30 -21 -34 -19 -29 15 5 32 35 42 46 15z m71 5 c3 -6 -1 -7
-9 -4 -11 4 -16 0 -16 -11 0 -12 5 -15 18 -10 13 5 14 3 5 -6 -15 -15 -33 -3
-33 22 0 20 24 26 35 9z m95 0 c0 -5 -7 -7 -15 -4 -10 4 -15 0 -15 -11 0 -12
5 -15 18 -10 13 5 14 3 5 -6 -15 -15 -33 -3 -33 22 0 12 7 19 20 19 11 0 20
-4 20 -10z m-2660 -21 c0 -5 -4 -9 -10 -9 -5 0 -10 7 -10 16 0 8 5 12 10 9 6
-3 10 -10 10 -16z m830 -4 c7 -9 8 -15 2 -15 -5 0 -12 7 -16 15 -3 8 -4 15 -2
15 2 0 9 -7 16 -15z m1770 0 c7 -9 8 -15 2 -15 -5 0 -12 7 -16 15 -3 8 -4 15
-2 15 2 0 9 -7 16 -15z m-3843 -84 c-1 -22 -5 -27 -14 -19 -9 7 -13 7 -13 -1
0 -6 -4 -11 -8 -11 -5 0 -7 14 -4 30 3 21 10 30 23 30 14 0 18 -7 16 -29z
m180 -18 c-3 -10 -5 -2 -5 17 0 19 2 27 5 18 2 -10 2 -26 0 -35z m33 17 c0
-16 -2 -30 -4 -30 -2 0 -6 14 -8 30 -3 17 -1 30 4 30 4 0 8 -13 8 -30z m-160
-3 c0 -7 -4 -6 -10 3 -6 10 -10 11 -10 3 0 -20 4 -28 13 -25 5 1 5 -3 2 -9 -5
-8 -12 -6 -23 5 -12 12 -13 18 -3 30 14 17 31 13 31 -7z m56 11 c5 -8 2 -9 -9
-5 -11 4 -17 1 -17 -8 0 -8 8 -15 18 -15 14 0 15 -2 2 -10 -23 -14 -48 14 -30
34 15 19 26 20 36 4z m54 -23 c0 -14 -25 -27 -34 -18 -3 4 -6 11 -6 17 0 6 5
4 11 -4 8 -12 10 -9 6 13 -3 22 -2 25 9 16 8 -6 14 -17 14 -24z m1517 -477
c13 -12 23 -32 23 -44 0 -13 5 -35 12 -50 11 -23 10 -28 -7 -40 -25 -18 -96
-18 -121 0 -16 13 -17 18 -6 35 6 12 12 33 12 48 0 26 34 73 54 73 5 0 20 -10
33 -22z m-3028 -19 l23 -31 -31 7 c-40 9 -41 -10 -1 -24 36 -12 38 -34 8 -66
l-22 -23 -23 21 c-31 30 -29 40 7 32 37 -8 41 10 5 19 -36 9 -40 30 -14 65 13
17 23 31 24 31 1 0 12 -14 24 -31z m4939 19 c7 -7 12 -36 12 -64 0 -59 -21
-84 -70 -84 -15 0 -35 -6 -45 -14 -17 -12 -22 -10 -52 19 -27 26 -33 40 -33
74 0 73 9 81 98 81 47 0 83 -5 90 -12z m-5178 -18 c11 -7 7 -10 -17 -10 -21 0
-37 -7 -47 -22 -9 -12 -14 -23 -12 -26 2 -2 31 11 65 27 34 17 61 28 61 23 0
-4 -31 -23 -70 -42 -38 -18 -68 -36 -65 -38 3 -3 31 9 64 27 32 17 61 31 64
31 12 0 -14 -66 -30 -77 -19 -15 -77 -18 -69 -4 3 5 15 7 25 4 12 -3 28 4 42
18 33 33 9 35 -50 5 -28 -14 -52 -26 -55 -26 -2 0 -3 17 0 38 3 23 14 45 30
60 27 24 41 27 64 12z m3730 -5 c0 -8 -4 -15 -9 -15 -13 0 -22 16 -14 24 11
11 23 6 23 -9z m64 6 c4 -5 0 -12 -6 -14 -10 -4 -10 -8 1 -15 9 -7 10 -12 2
-16 -6 -4 -11 -20 -11 -37 0 -44 -27 -37 -33 9 -6 51 28 104 47 73z m36 -6 c0
-8 -4 -15 -10 -15 -5 0 -10 7 -10 15 0 8 5 15 10 15 6 0 10 -7 10 -15z m280 0
c0 -8 -4 -15 -9 -15 -13 0 -22 16 -14 24 11 11 23 6 23 -9z m-3800 -12 c10
-17 10 -17 20 0 6 9 18 17 26 17 12 0 12 -4 -3 -26 -16 -25 -16 -28 0 -55 13
-24 14 -29 2 -29 -8 0 -19 8 -25 18 -10 16 -10 16 -20 0 -6 -10 -18 -18 -26
-18 -13 0 -13 4 2 29 16 28 16 31 0 55 -14 22 -14 26 -2 26 8 0 20 -8 26 -17z
m100 -28 c0 -41 2 -45 24 -45 14 0 28 -4 31 -10 4 -6 -12 -10 -39 -10 l-46 0
0 55 c0 42 3 55 15 55 11 0 15 -12 15 -45z m117 19 l16 -26 14 26 c24 46 43
33 43 -29 0 -62 -17 -75 -22 -17 l-3 37 -14 -27 c-8 -16 -17 -28 -21 -28 -4 0
-13 12 -21 28 l-14 27 -3 -37 c-5 -58 -22 -45 -22 17 0 63 17 73 47 29z m2955
-11 l23 -38 3 38 c5 57 22 44 22 -18 0 -64 -15 -72 -45 -22 l-20 32 -3 -32
c-2 -21 -9 -33 -18 -33 -10 0 -14 14 -14 55 0 67 17 73 52 18z m203 -28 c1
-36 -2 -45 -14 -43 -19 4 -33 66 -19 91 15 29 30 6 33 -48z m383 18 c-6 -7 -7
-24 -4 -39 6 -21 4 -25 -11 -22 -21 4 -36 65 -21 91 9 18 10 18 28 0 12 -12
14 -22 8 -30z m1252 40 c0 -5 11 -21 25 -38 l24 -30 -6 38 c-5 30 -3 37 11 37
13 0 16 -11 16 -55 0 -64 -18 -74 -47 -25 -9 17 -21 30 -25 30 -4 0 -8 -13 -8
-30 0 -16 -4 -30 -10 -30 -5 0 -10 25 -10 55 0 42 3 55 15 55 8 0 15 -3 15 -7z
m360 -49 l0 -55 -42 3 c-42 3 -43 4 -43 38 0 31 3 35 28 38 15 2 27 9 27 18 0
8 7 14 15 14 12 0 15 -13 15 -56z m80 41 c0 -9 9 -15 24 -15 25 0 36 -16 36
-56 0 -15 -6 -24 -15 -24 -10 0 -15 10 -15 30 0 20 -5 30 -15 30 -10 0 -15
-10 -15 -30 0 -16 -4 -30 -10 -30 -5 0 -10 25 -10 55 0 30 5 55 10 55 6 0 10
-7 10 -15z m190 -40 c0 -30 -4 -55 -10 -55 -5 0 -10 25 -10 55 0 30 5 55 10
55 6 0 10 -25 10 -55z m178 42 c14 -17 -11 -57 -35 -57 -15 0 -14 2 0 18 24
26 21 33 -8 26 -23 -6 -33 4 -18 19 11 12 50 8 61 -6z m-2503 -57 c0 -32 -3
-35 -32 -38 -24 -2 -33 1 -38 17 -3 12 -3 30 0 42 5 16 14 19 38 17 29 -3 32
-6 32 -38z m105 0 c0 -22 -4 -40 -10 -40 -5 0 -10 18 -10 40 0 22 5 40 10 40
6 0 10 -18 10 -40z m100 0 c0 -22 -4 -40 -10 -40 -5 0 -10 18 -10 40 0 22 5
40 10 40 6 0 10 -18 10 -40z m88 22 c3 -9 -3 -11 -22 -6 -22 5 -26 3 -26 -16
0 -19 4 -21 26 -16 19 5 25 3 22 -6 -8 -23 -55 -22 -68 1 -16 31 4 63 37 59
15 -2 28 -9 31 -16z m90 -24 c3 -37 2 -38 -31 -38 -37 0 -54 19 -34 39 6 6 19
11 30 11 10 0 16 4 13 9 -3 5 -16 7 -28 3 -15 -4 -19 -2 -14 7 5 7 20 11 34 9
23 -3 27 -8 30 -40z m102 2 c0 -22 -4 -40 -10 -40 -5 0 -10 18 -10 40 0 22 5
40 10 40 6 0 10 -18 10 -40z m94 18 c15 -24 -3 -52 -37 -56 -33 -4 -53 28 -37
59 14 25 58 23 74 -3z m94 -20 c2 -22 -1 -38 -7 -38 -6 0 -11 14 -11 30 0 20
-5 30 -15 30 -10 0 -15 -10 -15 -30 0 -20 -5 -30 -15 -30 -11 0 -15 11 -15 41
l0 40 38 -3 c35 -3 37 -5 40 -40z m82 31 c0 -6 -9 -8 -20 -4 -11 3 -20 2 -20
-3 0 -6 12 -13 26 -16 37 -10 28 -40 -14 -44 -24 -2 -32 1 -32 13 0 13 4 14
20 5 12 -7 20 -7 20 -1 0 5 -9 13 -20 16 -11 3 -20 15 -20 26 0 14 7 19 30 19
17 0 30 -5 30 -11z m1100 -9 c11 -21 9 -24 -35 -33 -14 -3 -12 -5 8 -6 34 -1
26 -21 -8 -21 -30 0 -46 27 -34 58 11 29 54 30 69 2z m90 5 c16 -19 4 -35 -28
-36 -23 -1 -22 -3 8 -9 27 -5 31 -8 18 -14 -30 -14 -63 -3 -66 22 -2 13 -1 30
2 38 7 18 50 18 66 -1z m338 -12 c3 -19 -2 -23 -25 -24 l-28 -2 28 -4 c32 -5
27 -23 -7 -23 -26 0 -46 17 -46 40 0 43 72 55 78 13z m137 -13 c0 -31 -3 -35
-27 -38 -16 -2 -28 -9 -28 -18 0 -8 -6 -14 -12 -14 -9 0 -12 16 -10 56 l4 55
36 -3 c35 -3 37 -5 37 -38z m65 -30 c0 -5 -7 -10 -15 -10 -8 0 -15 5 -15 10 0
6 7 10 15 10 8 0 15 -4 15 -10z m-2856 -51 c-3 -5 -11 -9 -19 -9 -8 0 -16 4
-19 9 -3 5 5 9 19 9 14 0 22 -4 19 -9z m-3329 -179 c3 -5 1 -10 -4 -10 -6 0
-11 5 -11 10 0 6 2 10 4 10 3 0 8 -4 11 -10z m3455 -22 c0 -9 3 -9 12 0 17 17
33 15 19 -2 -9 -11 -10 -20 -1 -35 6 -12 7 -21 1 -21 -5 0 -11 6 -14 13 -3 9
-7 9 -20 -2 -10 -8 -17 -9 -17 -3 0 6 5 14 10 17 7 4 7 13 0 26 -7 13 -7 19 0
19 5 0 10 -5 10 -12z m70 -13 c0 -14 5 -25 10 -25 6 0 10 -4 10 -10 0 -5 -9
-10 -20 -10 -16 0 -20 7 -20 35 0 19 5 35 10 35 6 0 10 -11 10 -25z m56 10 c4
-8 10 -15 15 -15 5 0 9 7 9 15 0 8 7 15 15 15 10 0 15 -11 15 -35 0 -19 -4
-35 -10 -35 -5 0 -10 7 -10 16 0 13 -3 14 -14 5 -11 -9 -15 -9 -19 1 -4 8 -6
7 -6 -4 -2 -34 -21 -18 -21 17 0 35 16 47 26 20z m-272 -41 c24 -24 21 -47 -6
-39 -22 6 -22 5 1 -8 l25 -15 -33 -7 c-35 -8 -56 4 -64 36 -4 16 -2 19 16 14
19 -5 19 -4 -3 9 -32 19 -13 20 20 1 14 -8 31 -14 39 -15 21 0 -6 28 -32 33
l-22 4 22 2 c12 0 29 -6 37 -15z m780 -8 c-3 -8 -1 -17 5 -21 7 -3 11 3 11 15
0 15 5 20 18 18 11 -2 17 -12 17 -28 0 -22 -4 -25 -42 -27 -24 -1 -43 3 -43 8
0 4 7 6 15 3 8 -4 15 -1 15 5 0 6 -5 11 -11 11 -5 0 -8 4 -5 9 4 5 0 12 -6 14
-7 3 -3 6 9 6 15 1 21 -3 17 -13z m106 7 c-1 -5 -8 -19 -16 -33 l-15 -25 5 27
c4 16 1 28 -7 31 -6 3 -2 6 11 6 12 1 22 -2 22 -6z m32 -2 c-11 -7 -11 -9 2
-14 9 -4 16 -11 16 -17 0 -16 -31 -24 -40 -10 -11 19 0 50 19 50 12 0 13 -2 3
-9z m64 -3 c4 -6 -1 -17 -10 -24 -13 -9 -14 -13 -4 -17 8 -4 7 -6 -4 -6 -10
-1 -18 2 -18 6 0 3 8 15 18 26 16 19 16 20 0 14 -10 -4 -18 -2 -18 3 0 14 27
12 36 -2z m70 0 c4 -6 -1 -17 -10 -24 -16 -12 -16 -13 1 -17 14 -4 14 -5 -4
-6 -28 -1 -29 6 -5 32 16 19 16 20 0 14 -10 -4 -18 -2 -18 3 0 14 27 12 36 -2z
m34 -18 c0 -16 -2 -30 -4 -30 -2 0 -6 14 -8 30 -3 17 -1 30 4 30 4 0 8 -13 8
-30z m-925 -40 c3 -6 -1 -7 -9 -4 -21 8 -20 -6 2 -22 14 -10 15 -15 5 -25 -11
-11 -15 -11 -25 0 -11 10 -10 11 5 6 22 -9 22 4 0 20 -9 7 -13 17 -9 23 9 15
23 15 31 2z m175 -11 c0 -13 -29 -43 -36 -37 -2 3 2 11 11 18 17 15 21 35 3
24 -7 -4 -8 -3 -4 5 8 13 26 6 26 -10z m-125 -16 c0 -27 -18 -42 -30 -24 -3 7
0 8 9 5 9 -3 16 -1 16 5 0 6 -4 11 -10 11 -5 0 -7 7 -4 15 10 24 20 17 19 -12z
m53 7 c-7 -10 -14 -17 -17 -15 -4 4 18 35 25 35 2 0 -1 -9 -8 -20z m99 -2 c-3
-8 -6 -5 -6 6 -1 11 2 17 5 13 3 -3 4 -12 1 -19z m-80 -20 c-3 -8 -6 -5 -6 6
-1 11 2 17 5 13 3 -3 4 -12 1 -19z m99 -6 c-13 -14 -18 -14 -28 -3 -11 11 -10
13 5 8 11 -4 17 -1 17 9 0 8 5 12 11 8 7 -4 6 -11 -5 -22z m-215 -227 c8 5 9
1 5 -13 -4 -11 -2 -23 4 -27 5 -3 10 -11 10 -17 0 -6 -8 -3 -19 6 -17 16 -19
16 -25 0 -4 -9 -9 -14 -12 -11 -3 3 -1 14 5 26 7 13 8 22 1 26 -5 3 -10 11
-10 17 0 7 5 6 15 -2 8 -6 19 -9 26 -5z m49 -20 c0 -14 5 -25 10 -25 6 0 10
-4 10 -10 0 -5 -9 -10 -20 -10 -16 0 -20 7 -20 35 0 19 5 35 10 35 6 0 10 -11
10 -25z m60 8 c1 -17 1 -17 14 0 7 9 18 17 25 17 14 0 15 -56 1 -65 -6 -3 -10
4 -10 17 0 17 -3 19 -9 9 -5 -7 -14 -10 -20 -7 -6 4 -11 2 -11 -3 0 -6 -4 -11
-10 -11 -5 0 -10 14 -10 30 0 32 30 45 30 13z m-264 -71 l1 -31 -38 20 c-32
16 -39 17 -39 5 0 -8 12 -19 28 -24 23 -9 24 -11 6 -11 -12 -1 -27 5 -33 13
-14 17 -23 79 -10 71 5 -4 17 -2 26 4 27 15 58 -10 59 -47z m758 42 c8 -3 12
-12 9 -20 -3 -8 -1 -14 5 -14 5 0 12 9 15 21 7 27 31 20 35 -10 5 -30 -13 -50
-30 -33 -9 9 -15 9 -25 0 -10 -8 -17 -8 -26 2 -9 9 -9 11 0 6 6 -3 14 -2 18 4
3 5 1 10 -5 10 -7 0 -10 6 -7 14 3 8 1 17 -6 20 -17 7 -2 7 17 0z m108 -20
c-2 -10 -8 -23 -14 -29 -6 -7 -7 0 -2 19 5 22 4 27 -6 21 -9 -5 -11 -4 -6 4
11 18 32 7 28 -15z m41 19 c-7 -2 -13 -16 -13 -29 0 -15 4 -23 10 -19 6 4 8
11 5 16 -4 5 -1 9 4 9 14 0 14 -27 0 -36 -6 -3 -18 0 -26 9 -12 11 -13 19 -4
36 7 11 17 21 24 20 9 0 9 -2 0 -6z m62 -4 c4 -5 -1 -19 -10 -29 -13 -14 -13
-19 -3 -23 8 -4 7 -6 -4 -6 -22 -1 -24 25 -2 33 8 3 12 10 9 16 -4 6 -11 7
-17 4 -7 -4 -8 -2 -4 4 9 15 23 15 31 1z m70 0 c4 -5 -1 -19 -10 -29 -15 -17
-15 -19 2 -23 14 -4 14 -5 -4 -6 -26 -1 -31 24 -7 33 8 3 12 10 9 16 -4 6 -11
7 -17 4 -7 -4 -8 -2 -4 4 9 15 23 15 31 1z m35 -26 c0 -32 -5 -28 -14 10 -4
19 -3 26 4 22 5 -3 10 -18 10 -32z m-925 -43 c3 -6 -1 -7 -9 -4 -10 4 -16 1
-16 -7 0 -7 -3 -10 -6 -6 -7 7 4 27 16 27 5 0 12 -4 15 -10z m53 -20 c1 -25
-3 -30 -21 -29 -17 1 -18 2 -4 6 17 4 24 23 9 23 -5 0 -9 7 -9 15 0 29 24 15
25 -15z m117 20 c7 -11 -16 -50 -29 -50 -5 0 -2 8 7 18 21 23 22 36 1 28 -8
-3 -12 -2 -9 4 8 13 22 13 30 0z m-67 -20 c-7 -10 -14 -17 -17 -15 -4 4 18 35
25 35 2 0 -1 -9 -8 -20z m-106 -32 c-9 -9 -15 -9 -24 0 -9 9 -8 12 6 12 11 0
15 5 10 13 -6 10 -4 10 7 0 10 -10 10 -16 1 -25z m128 16 c0 -8 -5 -12 -10 -9
-6 4 -8 11 -5 16 9 14 15 11 15 -7z m105 7 c3 -5 1 -12 -5 -16 -5 -3 -10 1
-10 9 0 18 6 21 15 7z m-241 -243 c5 -10 7 -10 12 0 3 6 10 12 15 12 6 0 5 -9
-1 -21 -9 -15 -8 -24 1 -35 7 -9 8 -14 1 -14 -6 0 -14 5 -18 11 -4 8 -9 7 -15
-2 -4 -7 -11 -10 -15 -6 -4 3 -1 13 5 21 8 10 9 16 1 21 -5 3 -10 10 -10 16 0
13 17 11 24 -3z m66 -23 c0 -13 6 -26 13 -28 6 -3 2 -6 -10 -6 -20 -1 -23 4
-23 35 0 21 4 33 10 29 6 -3 10 -17 10 -30z m60 18 c10 -17 10 -17 20 0 17 27
30 20 30 -18 0 -19 -4 -35 -10 -35 -5 0 -10 8 -10 18 0 14 -2 15 -10 2 -9 -13
-11 -13 -20 0 -8 13 -10 12 -10 -2 0 -10 -4 -18 -10 -18 -5 0 -10 16 -10 35 0
38 13 45 30 18z m-278 -40 c19 -17 26 -79 8 -68 -6 4 -17 2 -25 -5 -14 -11
-53 1 -57 18 -5 26 -4 62 3 62 14 0 19 -18 7 -24 -7 -3 -3 -3 9 0 12 3 31 0
43 -6 14 -8 20 -8 20 0 0 6 -15 17 -32 25 -23 10 -27 14 -14 15 11 0 28 -7 38
-17z m782 -7 c-3 -8 -1 -17 4 -20 5 -3 12 4 15 15 8 28 31 19 35 -13 3 -25 1
-26 -42 -26 -25 0 -46 4 -46 9 0 4 8 5 18 2 15 -6 15 -5 3 10 -7 9 -10 17 -5
17 5 0 2 5 -6 10 -12 8 -11 10 7 10 15 0 21 -5 17 -14z m106 7 c-1 -5 -7 -19
-15 -33 l-15 -25 6 29 c5 21 4 27 -5 22 -6 -4 -11 -2 -11 3 0 6 9 11 20 11 11
0 20 -3 20 -7z m33 0 c-15 -6 -18 -43 -3 -43 5 0 7 8 3 18 -5 14 -3 15 8 4 11
-10 11 -15 -2 -28 -14 -13 -17 -13 -28 0 -14 17 1 57 22 55 9 0 9 -2 0 -6z
m62 -4 c4 -6 -2 -19 -14 -30 -25 -24 -28 -14 -3 14 16 19 16 20 0 14 -10 -4
-18 -2 -18 3 0 13 27 13 35 -1z m70 0 c4 -6 -2 -19 -14 -30 -12 -11 -21 -15
-21 -9 0 6 7 13 15 16 8 4 15 11 15 16 0 6 -7 8 -15 4 -8 -3 -15 -1 -15 4 0
13 27 13 35 -1z m35 -21 c0 -36 -4 -35 -14 5 -4 16 -2 27 4 27 5 0 10 -14 10
-32z m-938 -45 c-10 -4 -8 -9 5 -18 14 -11 16 -16 6 -26 -11 -11 -15 -11 -25
0 -11 10 -10 11 5 6 9 -4 17 -3 17 3 0 5 -7 13 -16 16 -13 5 -14 9 -4 21 7 9
16 13 19 9 3 -4 0 -9 -7 -11z m63 -20 c0 -27 -18 -42 -30 -24 -3 7 0 8 9 5 9
-3 16 -1 16 5 0 6 -4 11 -10 11 -5 0 -7 7 -4 15 10 24 20 17 19 -12z m125 15
c-1 -20 -27 -50 -34 -39 -4 5 2 14 11 20 16 9 16 12 3 21 -13 8 -13 10 3 10 9
0 17 -6 17 -12z m-50 -23 c0 -8 -4 -15 -10 -15 -5 0 -7 7 -4 15 4 8 8 15 10
15 2 0 4 -7 4 -15z m100 1 c0 -21 -20 -30 -33 -17 -9 9 -8 11 6 6 19 -8 24 10
5 18 -8 3 -6 6 5 6 9 1 17 -5 17 -13z m-995 -56 c-3 -5 -17 -10 -31 -10 -13 0
-24 -4 -24 -10 0 -5 -13 -10 -30 -10 -23 0 -30 4 -30 20 0 18 7 20 61 20 37 0
58 -4 54 -10z m3685 -209 c16 -30 12 -133 -6 -159 -15 -21 -21 -22 -175 -22
-91 0 -169 4 -180 10 -16 9 -19 22 -19 88 0 47 5 83 12 90 8 8 64 12 185 12
160 0 173 -1 183 -19z"/>
<path d="M9150 6860 c0 -5 7 -10 15 -10 8 0 15 5 15 10 0 6 -7 10 -15 10 -8 0
-15 -4 -15 -10z"/>
<path d="M2560 6831 c0 -47 2 -51 23 -51 66 0 74 92 9 98 l-32 3 0 -50z"/>
<path d="M3477 6843 c-11 -10 -8 -51 3 -58 17 -10 50 5 50 24 0 30 -35 53 -53
34z"/>
<path d="M914 6768 c3 -13 6 -29 6 -36 0 -28 23 -5 26 26 3 27 1 32 -17 32
-17 0 -20 -4 -15 -22z"/>
<path d="M2700 6794 c0 -10 7 -14 22 -12 32 5 35 28 4 28 -17 0 -26 -5 -26
-16z"/>
<path d="M3164 6836 c-10 -26 1 -51 23 -54 14 -2 23 3 28 18 12 37 -38 71 -51
36z"/>
<path d="M3280 6794 c0 -10 7 -14 22 -12 32 5 35 28 4 28 -17 0 -26 -5 -26
-16z"/>
<path d="M1115 6780 c-3 -5 3 -10 14 -10 12 0 21 5 21 10 0 6 -6 10 -14 10 -8
0 -18 -4 -21 -10z"/>
<path d="M1235 6740 c-3 -5 3 -10 14 -10 12 0 21 5 21 10 0 6 -6 10 -14 10 -8
0 -18 -4 -21 -10z"/>
<path d="M1686 6771 c-10 -16 6 -42 23 -39 9 2 17 13 19 26 3 16 -2 22 -17 22
-11 0 -22 -4 -25 -9z"/>
<path d="M1084 6299 c-3 -6 0 -17 8 -25 13 -13 16 -13 27 0 7 8 10 20 6 26 -8
13 -32 13 -41 -1z"/>
<path d="M5177 5932 c-20 -22 -22 -73 -5 -90 7 -7 24 -12 38 -12 36 0 50 17
50 62 0 54 -49 78 -83 40z"/>
<path d="M3062 5938 c-22 -22 -13 -28 38 -28 28 0 50 4 50 8 0 16 -25 32 -50
32 -14 0 -31 -5 -38 -12z"/>
<path d="M3656 5928 c-31 -44 -13 -98 34 -98 53 0 78 62 40 100 -26 26 -55 25
-74 -2z"/>
<path d="M4272 5938 c-22 -22 -13 -28 38 -28 48 0 50 1 40 20 -12 23 -59 27
-78 8z"/>
<path d="M4914 5855 c-8 -21 4 -35 30 -35 25 0 46 17 46 37 0 19 -69 17 -76
-2z"/>
<path d="M9035 5780 c-4 -6 -3 -16 3 -22 6 -6 12 -6 17 2 4 6 3 16 -3 22 -6 6
-12 6 -17 -2z"/>
<path d="M3420 5576 c-13 -36 -14 -36 16 -36 22 0 24 3 19 23 -12 37 -24 42
-35 13z"/>
<path d="M2725 5570 c-8 -13 20 -24 41 -16 20 8 9 26 -16 26 -10 0 -22 -5 -25
-10z"/>
<path d="M3220 5567 c0 -7 8 -13 18 -12 26 2 30 20 5 23 -15 2 -23 -2 -23 -11z"/>
<path d="M3790 5565 c-17 -21 -2 -50 26 -50 14 0 19 7 19 30 0 34 -24 45 -45
20z"/>
<path d="M4477 4802 c-10 -10 -17 -22 -17 -25 0 -11 108 -8 115 3 4 6 -11 10
-39 10 -36 0 -44 3 -40 15 8 20 1 19 -19 -3z"/>
<path d="M4498 4743 c33 -3 42 -8 38 -19 -8 -20 8 -17 29 6 18 20 18 20 -46
18 -51 -1 -55 -2 -21 -5z"/>
<path d="M8722 4788 c-10 -10 -8 -16 10 -31 l23 -18 -24 6 c-16 5 -21 4 -17
-4 10 -16 46 -13 46 4 0 7 -8 19 -17 24 -17 10 -17 10 0 11 10 0 15 5 12 10
-8 13 -18 13 -33 -2z"/>
<path d="M8777 4773 c-15 -15 -7 -43 13 -43 11 0 20 5 20 11 0 8 5 8 15 -1 18
-15 45 -6 45 14 0 22 -19 30 -36 15 -11 -9 -18 -9 -26 -1 -14 14 -22 15 -31 5z
m23 -18 c0 -8 -4 -15 -10 -15 -5 0 -7 7 -4 15 4 8 8 15 10 15 2 0 4 -7 4 -15z
m54 0 c3 -8 1 -15 -4 -15 -6 0 -10 7 -10 15 0 8 2 15 4 15 2 0 6 -7 10 -15z"/>
<path d="M8906 4773 c-10 -10 -7 -43 3 -43 5 0 12 8 14 18 4 16 5 16 6 0 0
-10 5 -18 10 -18 5 0 12 8 14 18 4 16 5 16 6 0 1 -21 17 -24 24 -5 4 10 6 10
6 0 1 -7 10 -13 21 -13 11 0 20 6 20 13 0 8 3 7 10 -3 10 -17 15 -14 24 18 7
22 -7 31 -19 12 -5 -8 -11 -7 -21 1 -11 9 -17 9 -28 0 -8 -7 -17 -8 -20 -3 -6
10 -61 14 -70 5z m114 -23 c0 -5 -4 -10 -10 -10 -5 0 -10 5 -10 10 0 6 5 10
10 10 6 0 10 -4 10 -10z"/>
<path d="M9083 4769 c-16 -16 -5 -39 19 -39 14 0 19 6 16 22 -4 25 -19 33 -35
17z m27 -19 c0 -5 -5 -10 -11 -10 -5 0 -7 5 -4 10 3 6 8 10 11 10 2 0 4 -4 4
-10z"/>
<path d="M2775 4780 c-4 -6 10 -10 35 -10 25 0 39 4 35 10 -3 6 -19 10 -35 10
-16 0 -32 -4 -35 -10z"/>
<path d="M3488 4743 c7 -3 16 -2 19 1 4 3 -2 6 -13 5 -11 0 -14 -3 -6 -6z"/>
<path d="M3655 4780 c-3 -5 1 -10 9 -10 9 0 16 5 16 10 0 6 -4 10 -9 10 -6 0
-13 -4 -16 -10z"/>
<path d="M5070 4770 c0 -5 7 -10 15 -10 8 0 15 5 15 10 0 6 -7 10 -15 10 -8 0
-15 -4 -15 -10z"/>
<path d="M5520 4740 c0 -5 7 -10 15 -10 8 0 15 5 15 10 0 6 -7 10 -15 10 -8 0
-15 -4 -15 -10z"/>
<path d="M5790 4740 c0 -5 7 -10 15 -10 8 0 15 5 15 10 0 6 -7 10 -15 10 -8 0
-15 -4 -15 -10z"/>
<path d="M6073 4764 c-8 -20 13 -42 27 -28 12 12 3 44 -11 44 -5 0 -12 -7 -16
-16z"/>
<path d="M2771 4426 c-9 -11 -7 -15 11 -19 12 -4 24 -4 27 -2 2 3 -2 5 -9 5
-9 0 -7 5 6 15 19 14 19 14 -2 15 -12 0 -27 -6 -33 -14z"/>
<path d="M3735 4400 c3 -5 8 -10 11 -10 2 0 4 5 4 10 0 6 -5 10 -11 10 -5 0
-7 -4 -4 -10z"/>
<path d="M5442 4088 c2 -13 8 -23 13 -23 6 0 11 10 13 23 2 15 -2 22 -13 22
-11 0 -15 -7 -13 -22z"/>
<path d="M5505 4081 c-6 -11 9 -23 19 -14 9 9 7 23 -3 23 -6 0 -12 -4 -16 -9z"/>
<path d="M5592 4088 c2 -13 8 -23 13 -23 6 0 11 10 13 23 2 15 -2 22 -13 22
-11 0 -15 -7 -13 -22z"/>
<path d="M5796 4101 c-8 -13 4 -42 15 -35 12 7 12 44 0 44 -6 0 -12 -4 -15 -9z"/>
<path d="M6200 4100 c0 -5 5 -10 10 -10 6 0 10 5 10 10 0 6 -4 10 -10 10 -5 0
-10 -4 -10 -10z"/>
<path d="M7130 4089 c0 -5 5 -7 10 -4 6 3 10 8 10 11 0 2 -4 4 -10 4 -5 0 -10
-5 -10 -11z"/>
<path d="M8375 4090 c-4 -6 -3 -16 3 -22 6 -6 12 -6 17 2 4 6 3 16 -3 22 -6 6
-12 6 -17 -2z"/>
<path d="M3110 4070 c0 -13 5 -20 13 -17 6 2 12 10 12 17 0 7 -6 15 -12 18 -8
2 -13 -5 -13 -18z"/>
<path d="M6292 4081 c4 -13 18 -16 19 -4 0 4 -5 9 -11 12 -7 2 -11 -2 -8 -8z"/>
<path d="M8005 4090 c-4 -6 -3 -16 3 -22 6 -6 12 -6 17 2 4 6 3 16 -3 22 -6 6
-12 6 -17 -2z"/>
<path d="M2798 4063 c28 -3 42 -9 42 -19 0 -8 -7 -14 -17 -14 -9 0 -14 -3 -10
-6 3 -3 15 -3 26 1 17 5 19 10 11 26 -8 15 -20 19 -53 17 l-42 -1 43 -4z"/>
<path d="M2738 4035 c-3 -14 -2 -28 3 -31 4 -2 7 -10 5 -17 -1 -7 -1 -9 1 -4
8 13 21 8 26 -10 4 -14 5 -12 6 5 1 13 -5 22 -14 22 -19 0 -20 17 -2 22 11 2
10 7 -3 21 -17 17 -18 17 -22 -8z"/>
<path d="M2843 4006 c-9 -11 -9 -15 0 -19 7 -3 14 3 14 14 2 22 2 22 -14 5z"/>
<path d="M2811 3983 c-1 -12 -7 -24 -13 -26 -10 -4 -10 -6 0 -6 15 -1 26 23
19 41 -3 7 -6 3 -6 -9z"/>
<path d="M4420 3996 c0 -9 5 -16 10 -16 6 0 10 4 10 9 0 6 -4 13 -10 16 -5 3
-10 -1 -10 -9z"/>
<path d="M3110 3680 c0 -13 5 -18 15 -14 8 4 15 12 15 20 0 8 -7 14 -15 14 -8
0 -15 -9 -15 -20z"/>
<path d="M5446 3703 c-12 -12 -6 -43 9 -43 8 0 15 9 15 19 0 21 -13 34 -24 24z"/>
<path d="M5510 3670 c0 -5 5 -10 10 -10 6 0 10 5 10 10 0 6 -4 10 -10 10 -5 0
-10 -4 -10 -10z"/>
<path d="M5596 3703 c-12 -12 -6 -43 9 -43 8 0 15 9 15 19 0 21 -13 34 -24 24z"/>
<path d="M5794 3696 c-6 -17 2 -36 17 -36 12 0 12 37 -1 45 -6 3 -13 -1 -16
-9z"/>
<path d="M6200 3690 c0 -5 5 -10 10 -10 6 0 10 5 10 10 0 6 -4 10 -10 10 -5 0
-10 -4 -10 -10z"/>
<path d="M6290 3675 c0 -9 5 -15 11 -13 6 2 11 8 11 13 0 5 -5 11 -11 13 -6 2
-11 -4 -11 -13z"/>
<path d="M6347 3684 c-8 -8 1 -24 14 -24 5 0 9 7 9 15 0 15 -12 20 -23 9z"/>
<path d="M7130 3690 c0 -5 5 -10 11 -10 5 0 7 5 4 10 -3 6 -8 10 -11 10 -2 0
-4 -4 -4 -10z"/>
<path d="M7190 3675 c0 -8 5 -15 10 -15 6 0 10 7 10 15 0 8 -4 15 -10 15 -5 0
-10 -7 -10 -15z"/>
<path d="M8376 3683 c-11 -11 -6 -23 9 -23 8 0 15 4 15 9 0 13 -16 22 -24 14z"/>
<path d="M8006 3683 c-11 -11 -6 -23 9 -23 8 0 15 4 15 9 0 13 -16 22 -24 14z"/>
<path d="M8150 3675 c0 -8 5 -15 10 -15 6 0 10 7 10 15 0 8 -4 15 -10 15 -5 0
-10 -7 -10 -15z"/>
<path d="M3840 3630 c0 -5 5 -10 11 -10 5 0 7 5 4 10 -3 6 -8 10 -11 10 -2 0
-4 -4 -4 -10z"/>
<path d="M3890 3630 c0 -5 5 -10 11 -10 5 0 7 5 4 10 -3 6 -8 10 -11 10 -2 0
-4 -4 -4 -10z"/>
<path d="M5444 3286 c-4 -10 -2 -22 4 -28 8 -8 13 -7 18 6 4 10 2 22 -4 28 -8
8 -13 7 -18 -6z"/>
<path d="M5594 3285 c-7 -17 4 -37 17 -30 12 8 12 45 -1 45 -6 0 -13 -7 -16
-15z"/>
<path d="M5793 3284 c-8 -22 15 -44 26 -25 10 16 4 41 -10 41 -5 0 -12 -7 -16
-16z"/>
<path d="M6200 3290 c0 -5 5 -10 10 -10 6 0 10 5 10 10 0 6 -4 10 -10 10 -5 0
-10 -4 -10 -10z"/>
<path d="M7130 3280 c0 -5 5 -10 10 -10 6 0 10 5 10 10 0 6 -4 10 -10 10 -5 0
-10 -4 -10 -10z"/>
<path d="M8372 3269 c2 -6 8 -10 13 -10 5 0 11 4 13 10 2 6 -4 11 -13 11 -9 0
-15 -5 -13 -11z"/>
<path d="M6290 3265 c0 -9 5 -15 11 -13 6 2 11 8 11 13 0 5 -5 11 -11 13 -6 2
-11 -4 -11 -13z"/>
<path d="M6347 3274 c-8 -8 1 -24 14 -24 5 0 9 7 9 15 0 15 -12 20 -23 9z"/>
<path d="M7190 3265 c0 -8 5 -15 10 -15 6 0 10 7 10 15 0 8 -4 15 -10 15 -5 0
-10 -7 -10 -15z"/>
<path d="M8002 3269 c2 -6 8 -10 13 -10 5 0 11 4 13 10 2 6 -4 11 -13 11 -9 0
-15 -5 -13 -11z"/>
<path d="M8150 3265 c0 -8 5 -15 10 -15 6 0 10 7 10 15 0 8 -4 15 -10 15 -5 0
-10 -7 -10 -15z"/>
<path d="M4420 3180 c0 -5 5 -10 10 -10 6 0 10 5 10 10 0 6 -4 10 -10 10 -5 0
-10 -4 -10 -10z"/>
<path d="M7937 2653 c-13 -12 -7 -22 9 -16 14 5 15 3 5 -15 -7 -14 -8 -22 -2
-22 18 0 31 36 19 48 -14 14 -22 15 -31 5z"/>
<path d="M7945 2580 c-3 -5 -1 -10 4 -10 6 0 11 5 11 10 0 6 -2 10 -4 10 -3 0
-8 -4 -11 -10z"/>
<path d="M8475 2600 c-8 -14 3 -30 21 -30 8 0 14 9 14 20 0 21 -24 28 -35 10z"/>
<path d="M6435 2600 c-8 -14 3 -30 21 -30 8 0 14 9 14 20 0 21 -24 28 -35 10z"/>
<path d="M6828 2573 c7 -3 16 -2 19 1 4 3 -2 6 -13 5 -11 0 -14 -3 -6 -6z"/>
<path d="M7010 2590 c0 -15 5 -20 18 -18 9 2 17 10 17 18 0 8 -8 16 -17 18
-13 2 -18 -3 -18 -18z"/>
<path d="M8295 2610 c-3 -5 1 -10 10 -10 9 0 13 5 10 10 -3 6 -8 10 -10 10 -2
0 -7 -4 -10 -10z"/>
<path d="M8385 2610 c-3 -5 1 -10 10 -10 9 0 13 5 10 10 -3 6 -8 10 -10 10 -2
0 -7 -4 -10 -10z"/>
<path d="M8725 2610 c-3 -5 1 -10 10 -10 9 0 13 5 10 10 -3 6 -8 10 -10 10 -2
0 -7 -4 -10 -10z"/>
<path d="M8850 2590 c0 -15 5 -20 18 -18 9 2 17 10 17 18 0 8 -8 16 -17 18
-13 2 -18 -3 -18 -18z"/>
<path d="M6041 2231 c-19 -12 -5 -31 22 -31 21 1 21 1 4 14 -14 11 -15 15 -5
19 7 3 9 6 3 6 -5 0 -16 -3 -24 -8z"/>
<path d="M6900 2230 c0 -5 5 -10 10 -10 6 0 10 5 10 10 0 6 -4 10 -10 10 -5 0
-10 -4 -10 -10z"/>
<path d="M7000 2230 c0 -5 5 -10 10 -10 6 0 10 5 10 10 0 6 -4 10 -10 10 -5 0
-10 -4 -10 -10z"/>
<path d="M6032 1872 c-8 -6 -1 -13 23 -25 49 -23 58 -21 15 4 -32 19 -26 19
18 2 15 -6 15 -5 3 10 -14 18 -38 22 -59 9z"/>
<path d="M6900 1870 c0 -5 5 -10 11 -10 5 0 7 5 4 10 -3 6 -8 10 -11 10 -2 0
-4 -4 -4 -10z"/>
<path d="M6900 1840 c0 -5 5 -10 10 -10 6 0 10 5 10 10 0 6 -4 10 -10 10 -5 0
-10 -4 -10 -10z"/>
<path d="M6029 1447 c15 -18 38 -22 59 -8 11 7 10 9 -3 14 -11 5 -14 3 -9 -5
5 -8 2 -9 -9 -5 -54 22 -53 22 -38 4z"/>
<path d="M8882 1078 c-10 -10 -8 -16 10 -31 l23 -18 -25 7 c-22 6 -23 5 -12
-9 15 -18 42 -12 42 9 0 7 -8 18 -17 23 -17 10 -17 10 0 11 10 0 15 5 12 10
-8 13 -18 13 -33 -2z"/>
<path d="M9063 1073 c-32 -22 -30 -53 2 -53 22 0 25 4 25 35 0 19 -1 35 -2 34
-2 0 -13 -7 -25 -16z m8 -36 c-13 -13 -26 -3 -16 12 3 6 11 8 17 5 6 -4 6 -10
-1 -17z"/>
<path d="M8937 1064 c-16 -16 -7 -44 14 -44 15 0 20 5 17 22 -3 22 -19 33 -31
22z m23 -19 c0 -8 -4 -15 -10 -15 -5 0 -7 7 -4 15 4 8 8 15 10 15 2 0 4 -7 4
-15z"/>
<path d="M8987 1064 c-10 -11 -9 -44 2 -44 5 0 11 10 14 23 4 22 4 22 15 -3
l12 -25 -3 25 c-2 24 -26 38 -40 24z"/>
</g>
</svg>
